<svg width="553" height="180" viewBox="0 0 553 180" fill="none" xmlns="http://www.w3.org/2000/svg">
<g clip-path="url(#clip0_43_2)">
<path d="M343.752 68.424V77H314.12V32.648H324.104V68.424H343.752ZM359.079 77H349.543V43.336H359.079V77ZM359.975 33.608C359.975 35.3573 359.399 36.744 358.247 37.768C357.137 38.7493 355.815 39.24 354.279 39.24C352.743 39.24 351.399 38.7493 350.247 37.768C349.137 36.744 348.583 35.3573 348.583 33.608C348.583 31.8587 349.137 30.4933 350.247 29.512C351.399 28.488 352.743 27.976 354.279 27.976C355.815 27.976 357.137 28.488 358.247 29.512C359.399 30.4933 359.975 31.8587 359.975 33.608ZM368.043 44.488C369.664 44.0187 371.755 43.592 374.315 43.208C376.875 42.7813 379.563 42.568 382.378 42.568C385.237 42.568 387.605 42.952 389.483 43.72C391.403 44.4453 392.917 45.4907 394.027 46.856C395.136 48.2213 395.925 49.8427 396.395 51.72C396.864 53.5973 397.099 55.688 397.099 57.992V77H387.563V59.144C387.563 56.072 387.157 53.896 386.347 52.616C385.536 51.336 384.021 50.696 381.803 50.696C381.12 50.696 380.395 50.7387 379.627 50.824C378.859 50.8667 378.176 50.9307 377.579 51.016V77H368.043V44.488ZM434.466 75.848C432.845 76.3173 430.754 76.744 428.194 77.128C425.634 77.5547 422.946 77.768 420.13 77.768C417.271 77.768 414.882 77.384 412.962 76.616C411.085 75.848 409.591 74.7813 408.482 73.416C407.373 72.008 406.583 70.344 406.114 68.424C405.645 66.504 405.41 64.392 405.41 62.088V43.336H414.946V60.936C414.946 64.008 415.351 66.2267 416.162 67.592C416.973 68.9573 418.487 69.64 420.706 69.64C421.389 69.64 422.114 69.6187 422.882 69.576C423.65 69.4907 424.333 69.4053 424.93 69.32V43.336H434.466V75.848ZM456.794 53.576L463.45 43.336H473.306L461.786 59.528C464.346 62.728 466.671 65.8427 468.762 68.872C470.852 71.9013 472.516 74.6107 473.754 77H463.514C463.172 76.36 462.746 75.5707 462.234 74.632C461.722 73.6507 461.146 72.648 460.506 71.624C459.866 70.5573 459.183 69.512 458.458 68.488C457.775 67.4213 457.092 66.4613 456.41 65.608C455.77 66.4187 455.108 67.3147 454.426 68.296C453.786 69.2773 453.167 70.28 452.57 71.304C451.972 72.2853 451.375 73.2667 450.778 74.248C450.223 75.2293 449.732 76.1467 449.306 77H439.578C440.09 75.9333 440.794 74.6747 441.69 73.224C442.586 71.7733 443.546 70.28 444.57 68.744C445.636 67.1653 446.746 65.608 447.898 64.072C449.05 62.4933 450.18 61.0213 451.29 59.656C449.37 56.968 447.45 54.2587 445.53 51.528C443.61 48.7547 441.711 46.024 439.834 43.336H450.138L456.794 53.576ZM327.304 151C325.555 147.288 323.827 143.427 322.12 139.416C320.413 135.405 318.792 131.437 317.256 127.512C315.72 123.587 314.291 119.832 312.968 116.248C311.688 112.664 310.579 109.464 309.64 106.648H320.648C321.501 109.208 322.419 111.981 323.4 114.968C324.424 117.912 325.448 120.856 326.472 123.8C327.539 126.744 328.563 129.56 329.544 132.248C330.525 134.936 331.443 137.261 332.296 139.224C333.107 137.261 334.003 134.936 334.984 132.248C336.008 129.56 337.032 126.744 338.056 123.8C339.123 120.856 340.147 117.912 341.128 114.968C342.152 111.981 343.091 109.208 343.944 106.648H354.568C353.587 109.464 352.456 112.664 351.176 116.248C349.896 119.832 348.488 123.587 346.952 127.512C345.416 131.437 343.795 135.405 342.088 139.416C340.381 143.427 338.653 147.288 336.904 151H327.304ZM369.204 151H359.668V117.336H369.204V151ZM370.1 107.608C370.1 109.357 369.524 110.744 368.372 111.768C367.262 112.749 365.94 113.24 364.404 113.24C362.868 113.24 361.524 112.749 360.372 111.768C359.262 110.744 358.708 109.357 358.708 107.608C358.708 105.859 359.262 104.493 360.372 103.512C361.524 102.488 362.868 101.976 364.404 101.976C365.94 101.976 367.262 102.488 368.372 103.512C369.524 104.493 370.1 105.859 370.1 107.608ZM376.568 134.168C376.568 131.736 376.952 129.453 377.72 127.32C378.53 125.144 379.682 123.267 381.176 121.688C382.669 120.067 384.482 118.787 386.616 117.848C388.749 116.909 391.181 116.44 393.912 116.44C395.704 116.44 397.346 116.611 398.84 116.952C400.333 117.251 401.784 117.699 403.192 118.296L401.208 125.912C400.312 125.571 399.33 125.272 398.264 125.016C397.197 124.76 396.002 124.632 394.68 124.632C391.864 124.632 389.752 125.507 388.344 127.256C386.978 129.005 386.296 131.309 386.296 134.168C386.296 137.197 386.936 139.544 388.216 141.208C389.538 142.872 391.821 143.704 395.064 143.704C396.216 143.704 397.453 143.597 398.776 143.384C400.098 143.171 401.314 142.829 402.424 142.36L403.768 150.168C402.658 150.637 401.272 151.043 399.608 151.384C397.944 151.725 396.109 151.896 394.104 151.896C391.032 151.896 388.386 151.448 386.168 150.552C383.949 149.613 382.114 148.355 380.664 146.776C379.256 145.197 378.21 143.341 377.528 141.208C376.888 139.032 376.568 136.685 376.568 134.168ZM409.848 108.952L419.384 107.416V117.336H430.84V125.272H419.384V137.112C419.384 139.117 419.725 140.717 420.408 141.912C421.133 143.107 422.562 143.704 424.696 143.704C425.72 143.704 426.765 143.619 427.832 143.448C428.941 143.235 429.944 142.957 430.84 142.616L432.184 150.04C431.032 150.509 429.752 150.915 428.344 151.256C426.936 151.597 425.208 151.768 423.16 151.768C420.557 151.768 418.402 151.427 416.696 150.744C414.989 150.019 413.624 149.037 412.6 147.8C411.576 146.52 410.85 144.984 410.424 143.192C410.04 141.4 409.848 139.416 409.848 137.24V108.952ZM468.843 134.104C468.843 136.749 468.459 139.181 467.691 141.4C466.923 143.576 465.814 145.453 464.363 147.032C462.912 148.568 461.163 149.763 459.115 150.616C457.11 151.469 454.848 151.896 452.331 151.896C449.856 151.896 447.595 151.469 445.547 150.616C443.542 149.763 441.814 148.568 440.363 147.032C438.912 145.453 437.782 143.576 436.971 141.4C436.16 139.181 435.755 136.749 435.755 134.104C435.755 131.459 436.16 129.048 436.971 126.872C437.824 124.696 438.976 122.84 440.427 121.304C441.92 119.768 443.67 118.573 445.675 117.72C447.723 116.867 449.942 116.44 452.331 116.44C454.763 116.44 456.982 116.867 458.987 117.72C461.035 118.573 462.784 119.768 464.235 121.304C465.686 122.84 466.816 124.696 467.627 126.872C468.438 129.048 468.843 131.459 468.843 134.104ZM459.115 134.104C459.115 131.16 458.518 128.856 457.323 127.192C456.171 125.485 454.507 124.632 452.331 124.632C450.155 124.632 448.47 125.485 447.275 127.192C446.08 128.856 445.483 131.16 445.483 134.104C445.483 137.048 446.08 139.395 447.275 141.144C448.47 142.851 450.155 143.704 452.331 143.704C454.507 143.704 456.171 142.851 457.323 141.144C458.518 139.395 459.115 137.048 459.115 134.104ZM496.518 125.784C495.665 125.571 494.662 125.357 493.51 125.144C492.358 124.888 491.121 124.76 489.798 124.76C489.201 124.76 488.475 124.824 487.622 124.952C486.811 125.037 486.193 125.144 485.766 125.272V151H476.23V119.128C477.937 118.531 479.942 117.976 482.246 117.464C484.593 116.909 487.195 116.632 490.054 116.632C490.566 116.632 491.185 116.675 491.91 116.76C492.635 116.803 493.361 116.888 494.086 117.016C494.811 117.101 495.537 117.229 496.262 117.4C496.987 117.528 497.606 117.699 498.118 117.912L496.518 125.784ZM512.766 151H503.23V117.336H512.766V151ZM513.662 107.608C513.662 109.357 513.086 110.744 511.934 111.768C510.825 112.749 509.502 113.24 507.966 113.24C506.43 113.24 505.086 112.749 503.934 111.768C502.825 110.744 502.27 109.357 502.27 107.608C502.27 105.859 502.825 104.493 503.934 103.512C505.086 102.488 506.43 101.976 507.966 101.976C509.502 101.976 510.825 102.488 511.934 103.512C513.086 104.493 513.662 105.859 513.662 107.608ZM534.594 144.344C535.533 144.344 536.429 144.323 537.282 144.28C538.135 144.237 538.818 144.173 539.33 144.088V136.856C538.946 136.771 538.37 136.685 537.602 136.6C536.834 136.515 536.13 136.472 535.49 136.472C534.594 136.472 533.741 136.536 532.93 136.664C532.162 136.749 531.479 136.941 530.882 137.24C530.285 137.539 529.815 137.944 529.474 138.456C529.133 138.968 528.962 139.608 528.962 140.376C528.962 141.869 529.453 142.915 530.434 143.512C531.458 144.067 532.845 144.344 534.594 144.344ZM533.826 116.44C536.642 116.44 538.989 116.76 540.866 117.4C542.743 118.04 544.237 118.957 545.346 120.152C546.498 121.347 547.309 122.797 547.778 124.504C548.247 126.211 548.482 128.109 548.482 130.2V150.04C547.117 150.339 545.218 150.68 542.786 151.064C540.354 151.491 537.41 151.704 533.954 151.704C531.778 151.704 529.794 151.512 528.002 151.128C526.253 150.744 524.738 150.125 523.458 149.272C522.178 148.376 521.197 147.224 520.514 145.816C519.831 144.408 519.49 142.68 519.49 140.632C519.49 138.669 519.874 137.005 520.642 135.64C521.453 134.275 522.519 133.187 523.842 132.376C525.165 131.565 526.679 130.989 528.386 130.648C530.093 130.264 531.863 130.072 533.698 130.072C534.935 130.072 536.023 130.136 536.962 130.264C537.943 130.349 538.733 130.477 539.33 130.648V129.752C539.33 128.131 538.839 126.829 537.858 125.848C536.877 124.867 535.17 124.376 532.738 124.376C531.117 124.376 529.517 124.504 527.938 124.76C526.359 124.973 524.994 125.293 523.842 125.72L522.626 118.04C523.181 117.869 523.863 117.699 524.674 117.528C525.527 117.315 526.445 117.144 527.426 117.016C528.407 116.845 529.431 116.717 530.498 116.632C531.607 116.504 532.717 116.44 533.826 116.44Z" fill="#803D99"/>
<rect width="280" height="180" rx="33" fill="#803D99"/>
<path d="M84.6611 126.453C90.0791 126.453 92.7881 128.473 92.7881 132.513V133.867C92.7881 136.053 91.8138 137.455 89.8652 138.073C87.9167 138.691 84.376 139 79.2432 139H64.5576L62.918 138.929C46.9017 138.929 37.8005 138.192 35.6143 136.719C33.4281 135.245 32.335 129.946 32.335 120.821V109.558L32.4062 107.918L32.5488 99.791V86.7451L32.6201 83.5371V75.624L32.5488 70.9189C32.5488 69.3506 32.5488 67.7822 32.5488 66.2139L32.4775 61.5088V56.875L32.335 47.5361C32.335 43.639 32.6676 41.1914 33.333 40.1934C34.0459 39.1478 35.6618 38.625 38.1807 38.625C40.6995 38.625 42.6243 39.029 43.9551 39.8369C45.2858 40.5973 46.1888 42.1419 46.6641 44.4707C47.1868 46.7995 47.4482 59.4889 47.4482 82.5391C47.4482 105.589 48.2799 118.825 49.9434 122.247C50.8464 124.101 52.8424 125.312 55.9316 125.883C59.0684 126.453 64.1061 126.738 71.0449 126.738L75.6787 126.667C76.7243 126.619 77.7461 126.596 78.7441 126.596L81.7383 126.453H84.6611Z" fill="white"/>
<path d="M241.083 139.824H183.125C179.798 139.824 177.755 139.515 176.994 138.897C176.281 138.28 175.925 136.711 175.925 134.192V133.337C175.925 130.295 176.4 128.465 177.351 127.848C178.301 127.277 180.654 126.992 184.408 126.992H205.438L206.223 127.063L239.158 126.992C243.15 126.992 245.598 127.23 246.501 127.705C247.451 128.18 247.927 129.606 247.927 131.982V134.406C247.927 136.878 247.451 138.398 246.501 138.969C245.598 139.539 243.792 139.824 241.083 139.824Z" fill="white"/>
<path d="M111.402 138.938C109.074 138.938 107.909 136.966 107.909 133.021V131.81C107.909 128.863 110.143 125.631 114.61 122.114C115.513 121.401 121.383 117.766 132.219 111.207C143.055 104.648 148.473 101.274 148.473 101.084C148.473 100.894 142.983 97.377 132.005 90.5332C121.026 83.6895 115.062 79.8874 114.111 79.127C110.119 75.8952 108.123 72.3307 108.123 68.4336C108.123 64.5365 109.454 62.5879 112.115 62.5879C112.781 62.5879 115.109 63.7048 119.102 65.9385C136.876 75.9189 151.324 84.9964 162.445 93.1709C165.107 95.1195 166.438 97.7572 166.438 101.084C166.438 104.411 164.917 107.072 161.875 109.068C146.096 119.762 130.84 129.124 116.107 137.156C113.921 138.344 112.353 138.938 111.402 138.938Z" fill="white"/>
</g>
<defs>
<clipPath id="clip0_43_2">
<rect width="553" height="180" fill="white"/>
</clipPath>
</defs>
</svg>
