<svg width="1400" height="1080" viewBox="0 0 1400 1080" fill="none" xmlns="http://www.w3.org/2000/svg">
<path d="M700 800C1009.28 800 1260 714.934 1260 610C1260 505.066 1009.28 420 700 420C390.721 420 140 505.066 140 610C140 714.934 390.721 800 700 800Z" fill="url(#paint0_radial_156_2)"/>
<path d="M128.42 540L700 870V912L128.42 582V540Z" fill="url(#paint1_linear_156_2)"/>
<path d="M700 870L1271.58 540V582L700 912V870Z" fill="url(#paint2_linear_156_2)"/>
<path d="M700 210L1271.58 540L700 870L128.42 540L700 210Z" fill="url(#paint3_linear_156_2)"/>
<path d="M700 210L128.4 540" stroke="#1FA892" stroke-opacity="0.1"/>
<path d="M700 210L1271.6 540" stroke="#1FA892" stroke-opacity="0.1"/>
<path d="M777.9 255L206.4 585" stroke="#1FA892" stroke-opacity="0.1"/>
<path d="M622.1 255L1193.6 585" stroke="#1FA892" stroke-opacity="0.1"/>
<path d="M855.9 300L284.3 630" stroke="#1FA892" stroke-opacity="0.1"/>
<path d="M544.1 300L1115.7 630" stroke="#1FA892" stroke-opacity="0.1"/>
<path d="M933.8 345L362.3 675" stroke="#1FA892" stroke-opacity="0.1"/>
<path d="M466.2 345L1037.7 675" stroke="#1FA892" stroke-opacity="0.1"/>
<path d="M1011.8 390L440.2 720" stroke="#1FA892" stroke-opacity="0.1"/>
<path d="M388.2 390L959.8 720" stroke="#1FA892" stroke-opacity="0.1"/>
<path d="M1089.7 435L518.1 765" stroke="#1FA892" stroke-opacity="0.1"/>
<path d="M310.3 435L881.9 765" stroke="#1FA892" stroke-opacity="0.1"/>
<path d="M1167.7 480L596.1 810" stroke="#1FA892" stroke-opacity="0.1"/>
<path d="M232.3 480L803.9 810" stroke="#1FA892" stroke-opacity="0.1"/>
<path d="M1245.6 525L674 855" stroke="#1FA892" stroke-opacity="0.1"/>
<path d="M154.4 525L726 855" stroke="#1FA892" stroke-opacity="0.1"/>
<path d="M583.09 411.9L544.12 389.4L622.06 344.4" stroke="#34D6B8" stroke-opacity="0.75" stroke-width="2.2" stroke-linecap="square"/>
<path d="M505.14 456.9L445.39 422.4L367.45 467.4" stroke="#34D6B8" stroke-opacity="0.75" stroke-width="2.2" stroke-linecap="square"/>
<path d="M453.18 591.9L401.22 621.9L375.24 606.9" stroke="#34D6B8" stroke-opacity="0.75" stroke-width="2.2" stroke-linecap="square"/>
<path d="M531.13 636.9L466.17 674.4" stroke="#34D6B8" stroke-opacity="0.75" stroke-width="2.2" stroke-linecap="square"/>
<path d="M609.07 681.9L583.09 696.9L635.05 726.9" stroke="#34D6B8" stroke-opacity="0.75" stroke-width="2.2" stroke-linecap="square"/>
<path d="M894.86 621.9L954.61 656.4L1058.53 596.4" stroke="#34D6B8" stroke-opacity="0.75" stroke-width="2.2" stroke-linecap="square"/>
<path d="M816.91 666.9L881.87 704.4L803.92 749.4" stroke="#34D6B8" stroke-opacity="0.75" stroke-width="2.2" stroke-linecap="square"/>
<path d="M816.91 411.9L855.88 389.4L777.94 344.4" stroke="#34D6B8" stroke-opacity="0.75" stroke-width="2.2" stroke-linecap="square"/>
<path d="M920.84 471.9L980.59 437.4L1058.53 482.4" stroke="#34D6B8" stroke-opacity="0.75" stroke-width="2.2" stroke-linecap="square"/>
<path d="M622.06 344.4L700 299.4" stroke="#34D6B8" stroke-opacity="0.5" stroke-width="1.5" stroke-linecap="square"/>
<path d="M367.45 467.4L250.53 534.9" stroke="#34D6B8" stroke-opacity="0.5" stroke-width="1.5" stroke-linecap="square"/>
<path d="M1058.53 596.4L1136.48 551.4" stroke="#34D6B8" stroke-opacity="0.5" stroke-width="1.5" stroke-linecap="square"/>
<path d="M375.24 606.9L362.25 614.4" stroke="#34D6B8" stroke-opacity="0.5" stroke-width="1.5" stroke-linecap="square"/>
<path d="M635.05 726.9L725.98 779.4" stroke="#34D6B8" stroke-opacity="0.5" stroke-width="1.5" stroke-linecap="square"/>
<path d="M777.94 344.4L700 299.4" stroke="#34D6B8" stroke-opacity="0.5" stroke-width="1.5" stroke-linecap="square"/>
<path d="M692.21 282.9L754.56 318.9L707.79 345.9L645.44 309.9L692.21 282.9Z" fill="#063A35" fill-opacity="0.55" stroke="#27B49C" stroke-opacity="0.55" stroke-width="1.3"/>
<path d="M692.2 303.3C693.526 303.3 694.6 302.225 694.6 300.9C694.6 299.575 693.526 298.5 692.2 298.5C690.875 298.5 689.8 299.575 689.8 300.9C689.8 302.225 690.875 303.3 692.2 303.3Z" fill="#34D6B8" fill-opacity="0.7"/>
<path d="M1083.22 510.15L1140.37 543.15L1096.21 568.65L1039.05 535.65L1083.22 510.15Z" fill="#063A35" fill-opacity="0.55" stroke="#27B49C" stroke-opacity="0.55" stroke-width="1.3"/>
<path d="M1083.2 530.5C1084.53 530.5 1085.6 529.426 1085.6 528.1C1085.6 526.775 1084.53 525.7 1083.2 525.7C1081.87 525.7 1080.8 526.775 1080.8 528.1C1080.8 529.426 1081.87 530.5 1083.2 530.5Z" fill="#34D6B8" fill-opacity="0.7"/>
<path d="M301.2 505.65L368.75 544.65L319.38 573.15L251.83 534.15L301.2 505.65Z" fill="#063A35" fill-opacity="0.55" stroke="#27B49C" stroke-opacity="0.55" stroke-width="1.3"/>
<path d="M301.2 526C302.526 526 303.6 524.926 303.6 523.6C303.6 522.275 302.526 521.2 301.2 521.2C299.875 521.2 298.8 522.275 298.8 523.6C298.8 524.926 299.875 526 301.2 526Z" fill="#34D6B8" fill-opacity="0.7"/>
<path d="M694.8 734.4L751.96 767.4L705.2 794.4L648.04 761.4L694.8 734.4Z" fill="#063A35" fill-opacity="0.55" stroke="#27B49C" stroke-opacity="0.55" stroke-width="1.3"/>
<path d="M694.8 754.8C696.125 754.8 697.2 753.726 697.2 752.4C697.2 751.075 696.125 750 694.8 750C693.474 750 692.4 751.075 692.4 752.4C692.4 753.726 693.474 754.8 694.8 754.8Z" fill="#34D6B8" fill-opacity="0.7"/>
<path d="M910.44 378.9L946.82 399.9L910.44 420.9L874.07 399.9L910.44 378.9Z" fill="#1FA892" fill-opacity="0.6" stroke="#34D6B8" stroke-opacity="0.7"/>
<path d="M941.62 396.9L977.99 417.9L941.62 438.9L905.25 417.9L941.62 396.9Z" fill="#1FA892" fill-opacity="0.6" stroke="#34D6B8" stroke-opacity="0.7"/>
<path d="M910.44 399.9L941.62 417.9" stroke="#34D6B8" stroke-opacity="0.5" stroke-width="1.4" stroke-linecap="square"/>
<path d="M458.38 378.9L494.75 399.9L458.38 420.9L422.01 399.9L458.38 378.9Z" fill="#1FA892" fill-opacity="0.6" stroke="#34D6B8" stroke-opacity="0.7"/>
<path d="M489.56 396.9L525.93 417.9L489.56 438.9L453.18 417.9L489.56 396.9Z" fill="#1FA892" fill-opacity="0.6" stroke="#34D6B8" stroke-opacity="0.7"/>
<path d="M458.38 399.9L489.56 417.9" stroke="#34D6B8" stroke-opacity="0.5" stroke-width="1.4" stroke-linecap="square"/>
<path d="M884.46 654.9L920.84 675.9L884.46 696.9L848.09 675.9L884.46 654.9Z" fill="#1FA892" fill-opacity="0.6" stroke="#34D6B8" stroke-opacity="0.7"/>
<path d="M915.64 672.9L952.01 693.9L915.64 714.9L879.27 693.9L915.64 672.9Z" fill="#1FA892" fill-opacity="0.6" stroke="#34D6B8" stroke-opacity="0.7"/>
<path d="M884.46 675.9L915.64 693.9" stroke="#34D6B8" stroke-opacity="0.5" stroke-width="1.4" stroke-linecap="square"/>
<path d="M484.36 654.9L520.73 675.9L484.36 696.9L447.99 675.9L484.36 654.9Z" fill="#1FA892" fill-opacity="0.6" stroke="#34D6B8" stroke-opacity="0.7"/>
<path d="M515.54 672.9L551.91 693.9L515.54 714.9L479.16 693.9L515.54 672.9Z" fill="#1FA892" fill-opacity="0.6" stroke="#34D6B8" stroke-opacity="0.7"/>
<path d="M484.36 675.9L515.54 693.9" stroke="#34D6B8" stroke-opacity="0.5" stroke-width="1.4" stroke-linecap="square"/>
<path d="M622.1 351.6C626.076 351.6 629.3 348.377 629.3 344.4C629.3 340.424 626.076 337.2 622.1 337.2C618.123 337.2 614.9 340.424 614.9 344.4C614.9 348.377 618.123 351.6 622.1 351.6Z" stroke="#1FA892" stroke-opacity="0.5" stroke-width="1.3"/>
<path d="M622.1 348.6C624.419 348.6 626.3 346.72 626.3 344.4C626.3 342.081 624.419 340.2 622.1 340.2C619.78 340.2 617.9 342.081 617.9 344.4C617.9 346.72 619.78 348.6 622.1 348.6Z" fill="#0A4A44" stroke="#34D6B8" stroke-opacity="0.7" stroke-width="1.2"/>
<path d="M622.1 346.1C623.039 346.1 623.8 345.339 623.8 344.4C623.8 343.461 623.039 342.7 622.1 342.7C621.161 342.7 620.4 343.461 620.4 344.4C620.4 345.339 621.161 346.1 622.1 346.1Z" fill="#7CF5D8"/>
<path d="M367.4 474.6C371.376 474.6 374.6 471.377 374.6 467.4C374.6 463.424 371.376 460.2 367.4 460.2C363.423 460.2 360.2 463.424 360.2 467.4C360.2 471.377 363.423 474.6 367.4 474.6Z" stroke="#1FA892" stroke-opacity="0.5" stroke-width="1.3"/>
<path d="M367.4 471.6C369.72 471.6 371.6 469.72 371.6 467.4C371.6 465.081 369.72 463.2 367.4 463.2C365.08 463.2 363.2 465.081 363.2 467.4C363.2 469.72 365.08 471.6 367.4 471.6Z" fill="#0A4A44" stroke="#34D6B8" stroke-opacity="0.7" stroke-width="1.2"/>
<path d="M367.4 469.1C368.339 469.1 369.1 468.339 369.1 467.4C369.1 466.461 368.339 465.7 367.4 465.7C366.461 465.7 365.7 466.461 365.7 467.4C365.7 468.339 366.461 469.1 367.4 469.1Z" fill="#7CF5D8"/>
<path d="M375.2 614.1C379.176 614.1 382.4 610.877 382.4 606.9C382.4 602.924 379.176 599.7 375.2 599.7C371.224 599.7 368 602.924 368 606.9C368 610.877 371.224 614.1 375.2 614.1Z" stroke="#1FA892" stroke-opacity="0.5" stroke-width="1.3"/>
<path d="M375.2 611.1C377.52 611.1 379.4 609.22 379.4 606.9C379.4 604.581 377.52 602.7 375.2 602.7C372.88 602.7 371 604.581 371 606.9C371 609.22 372.88 611.1 375.2 611.1Z" fill="#0A4A44" stroke="#34D6B8" stroke-opacity="0.7" stroke-width="1.2"/>
<path d="M375.2 608.6C376.139 608.6 376.9 607.839 376.9 606.9C376.9 605.961 376.139 605.2 375.2 605.2C374.261 605.2 373.5 605.961 373.5 606.9C373.5 607.839 374.261 608.6 375.2 608.6Z" fill="#7CF5D8"/>
<path d="M635 734.1C638.977 734.1 642.2 730.877 642.2 726.9C642.2 722.924 638.977 719.7 635 719.7C631.024 719.7 627.8 722.924 627.8 726.9C627.8 730.877 631.024 734.1 635 734.1Z" stroke="#1FA892" stroke-opacity="0.5" stroke-width="1.3"/>
<path d="M635 731.1C637.32 731.1 639.2 729.22 639.2 726.9C639.2 724.581 637.32 722.7 635 722.7C632.68 722.7 630.8 724.581 630.8 726.9C630.8 729.22 632.68 731.1 635 731.1Z" fill="#0A4A44" stroke="#34D6B8" stroke-opacity="0.7" stroke-width="1.2"/>
<path d="M635 728.6C635.939 728.6 636.7 727.839 636.7 726.9C636.7 725.961 635.939 725.2 635 725.2C634.061 725.2 633.3 725.961 633.3 726.9C633.3 727.839 634.061 728.6 635 728.6Z" fill="#7CF5D8"/>
<path d="M1058.5 603.6C1062.48 603.6 1065.7 600.377 1065.7 596.4C1065.7 592.424 1062.48 589.2 1058.5 589.2C1054.52 589.2 1051.3 592.424 1051.3 596.4C1051.3 600.377 1054.52 603.6 1058.5 603.6Z" stroke="#1FA892" stroke-opacity="0.5" stroke-width="1.3"/>
<path d="M1058.5 600.6C1060.82 600.6 1062.7 598.72 1062.7 596.4C1062.7 594.081 1060.82 592.2 1058.5 592.2C1056.18 592.2 1054.3 594.081 1054.3 596.4C1054.3 598.72 1056.18 600.6 1058.5 600.6Z" fill="#0A4A44" stroke="#34D6B8" stroke-opacity="0.7" stroke-width="1.2"/>
<path d="M1058.5 598.1C1059.44 598.1 1060.2 597.339 1060.2 596.4C1060.2 595.461 1059.44 594.7 1058.5 594.7C1057.56 594.7 1056.8 595.461 1056.8 596.4C1056.8 597.339 1057.56 598.1 1058.5 598.1Z" fill="#7CF5D8"/>
<path d="M803.9 756.6C807.876 756.6 811.1 753.377 811.1 749.4C811.1 745.424 807.876 742.2 803.9 742.2C799.924 742.2 796.7 745.424 796.7 749.4C796.7 753.377 799.924 756.6 803.9 756.6Z" stroke="#1FA892" stroke-opacity="0.5" stroke-width="1.3"/>
<path d="M803.9 753.6C806.22 753.6 808.1 751.72 808.1 749.4C808.1 747.081 806.22 745.2 803.9 745.2C801.58 745.2 799.7 747.081 799.7 749.4C799.7 751.72 801.58 753.6 803.9 753.6Z" fill="#0A4A44" stroke="#34D6B8" stroke-opacity="0.7" stroke-width="1.2"/>
<path d="M803.9 751.1C804.839 751.1 805.6 750.339 805.6 749.4C805.6 748.461 804.839 747.7 803.9 747.7C802.961 747.7 802.2 748.461 802.2 749.4C802.2 750.339 802.961 751.1 803.9 751.1Z" fill="#7CF5D8"/>
<path d="M777.9 351.6C781.876 351.6 785.1 348.377 785.1 344.4C785.1 340.424 781.876 337.2 777.9 337.2C773.924 337.2 770.7 340.424 770.7 344.4C770.7 348.377 773.924 351.6 777.9 351.6Z" stroke="#1FA892" stroke-opacity="0.5" stroke-width="1.3"/>
<path d="M777.9 348.6C780.22 348.6 782.1 346.72 782.1 344.4C782.1 342.081 780.22 340.2 777.9 340.2C775.58 340.2 773.7 342.081 773.7 344.4C773.7 346.72 775.58 348.6 777.9 348.6Z" fill="#0A4A44" stroke="#34D6B8" stroke-opacity="0.7" stroke-width="1.2"/>
<path d="M777.9 346.1C778.839 346.1 779.6 345.339 779.6 344.4C779.6 343.461 778.839 342.7 777.9 342.7C776.961 342.7 776.2 343.461 776.2 344.4C776.2 345.339 776.961 346.1 777.9 346.1Z" fill="#7CF5D8"/>
<path d="M1058.5 489.6C1062.48 489.6 1065.7 486.377 1065.7 482.4C1065.7 478.424 1062.48 475.2 1058.5 475.2C1054.52 475.2 1051.3 478.424 1051.3 482.4C1051.3 486.377 1054.52 489.6 1058.5 489.6Z" stroke="#1FA892" stroke-opacity="0.5" stroke-width="1.3"/>
<path d="M1058.5 486.6C1060.82 486.6 1062.7 484.72 1062.7 482.4C1062.7 480.081 1060.82 478.2 1058.5 478.2C1056.18 478.2 1054.3 480.081 1054.3 482.4C1054.3 484.72 1056.18 486.6 1058.5 486.6Z" fill="#0A4A44" stroke="#34D6B8" stroke-opacity="0.7" stroke-width="1.2"/>
<path d="M1058.5 484.1C1059.44 484.1 1060.2 483.339 1060.2 482.4C1060.2 481.461 1059.44 480.7 1058.5 480.7C1057.56 480.7 1056.8 481.461 1056.8 482.4C1056.8 483.339 1057.56 484.1 1058.5 484.1Z" fill="#7CF5D8"/>
<path d="M700 306.6C703.977 306.6 707.2 303.377 707.2 299.4C707.2 295.424 703.977 292.2 700 292.2C696.024 292.2 692.8 295.424 692.8 299.4C692.8 303.377 696.024 306.6 700 306.6Z" stroke="#1FA892" stroke-opacity="0.5" stroke-width="1.3"/>
<path d="M700 303.6C702.32 303.6 704.2 301.72 704.2 299.4C704.2 297.081 702.32 295.2 700 295.2C697.68 295.2 695.8 297.081 695.8 299.4C695.8 301.72 697.68 303.6 700 303.6Z" fill="#0A4A44" stroke="#34D6B8" stroke-opacity="0.7" stroke-width="1.2"/>
<path d="M700 301.1C700.939 301.1 701.7 300.339 701.7 299.4C701.7 298.461 700.939 297.7 700 297.7C699.061 297.7 698.3 298.461 698.3 299.4C698.3 300.339 699.061 301.1 700 301.1Z" fill="#7CF5D8"/>
<path d="M726 786.6C729.977 786.6 733.2 783.377 733.2 779.4C733.2 775.424 729.977 772.2 726 772.2C722.024 772.2 718.8 775.424 718.8 779.4C718.8 783.377 722.024 786.6 726 786.6Z" stroke="#1FA892" stroke-opacity="0.5" stroke-width="1.3"/>
<path d="M726 783.6C728.32 783.6 730.2 781.72 730.2 779.4C730.2 777.081 728.32 775.2 726 775.2C723.68 775.2 721.8 777.081 721.8 779.4C721.8 781.72 723.68 783.6 726 783.6Z" fill="#0A4A44" stroke="#34D6B8" stroke-opacity="0.7" stroke-width="1.2"/>
<path d="M726 781.1C726.939 781.1 727.7 780.339 727.7 779.4C727.7 778.461 726.939 777.7 726 777.7C725.061 777.7 724.3 778.461 724.3 779.4C724.3 780.339 725.061 781.1 726 781.1Z" fill="#7CF5D8"/>
<path d="M685.9 275.1V309.3L670.3 343.5" stroke="#11675E" stroke-width="2.2"/>
<path d="M670.3 346.1C671.736 346.1 672.9 344.936 672.9 343.5C672.9 342.064 671.736 340.9 670.3 340.9C668.864 340.9 667.7 342.064 667.7 343.5C667.7 344.936 668.864 346.1 670.3 346.1Z" fill="#7CF5D8"/>
<path d="M657.8 291.4V325.6L642.2 359.8" stroke="#11675E" stroke-width="2.2"/>
<path d="M642.2 362.4C643.636 362.4 644.8 361.236 644.8 359.8C644.8 358.364 643.636 357.2 642.2 357.2C640.764 357.2 639.6 358.364 639.6 359.8C639.6 361.236 640.764 362.4 642.2 362.4Z" fill="#7CF5D8"/>
<path d="M629.6 307.6V341.8L614 376" stroke="#11675E" stroke-width="2.2"/>
<path d="M614 378.6C615.436 378.6 616.6 377.436 616.6 376C616.6 374.564 615.436 373.4 614 373.4C612.564 373.4 611.4 374.564 611.4 376C611.4 377.436 612.564 378.6 614 378.6Z" fill="#7CF5D8"/>
<path d="M601.5 323.9V358.1L585.9 392.3" stroke="#11675E" stroke-width="2.2"/>
<path d="M585.9 394.9C587.336 394.9 588.5 393.736 588.5 392.3C588.5 390.864 587.336 389.7 585.9 389.7C584.464 389.7 583.3 390.864 583.3 392.3C583.3 393.736 584.464 394.9 585.9 394.9Z" fill="#7CF5D8"/>
<path d="M573.3 340.1V374.3L557.8 408.5" stroke="#11675E" stroke-width="2.2"/>
<path d="M557.8 411.1C559.236 411.1 560.4 409.936 560.4 408.5C560.4 407.064 559.236 405.9 557.8 405.9C556.364 405.9 555.2 407.064 555.2 408.5C555.2 409.936 556.364 411.1 557.8 411.1Z" fill="#7CF5D8"/>
<path d="M545.2 356.4V390.6L529.6 424.8" stroke="#11675E" stroke-width="2.2"/>
<path d="M529.6 427.4C531.036 427.4 532.2 426.236 532.2 424.8C532.2 423.364 531.036 422.2 529.6 422.2C528.164 422.2 527 423.364 527 424.8C527 426.236 528.164 427.4 529.6 427.4Z" fill="#7CF5D8"/>
<path d="M517.1 372.6V406.8L501.5 441" stroke="#11675E" stroke-width="2.2"/>
<path d="M501.5 443.6C502.936 443.6 504.1 442.436 504.1 441C504.1 439.564 502.936 438.4 501.5 438.4C500.064 438.4 498.9 439.564 498.9 441C498.9 442.436 500.064 443.6 501.5 443.6Z" fill="#7CF5D8"/>
<path d="M488.9 388.9V423.1L473.3 457.3" stroke="#11675E" stroke-width="2.2"/>
<path d="M473.3 459.9C474.736 459.9 475.9 458.736 475.9 457.3C475.9 455.864 474.736 454.7 473.3 454.7C471.864 454.7 470.7 455.864 470.7 457.3C470.7 458.736 471.864 459.9 473.3 459.9Z" fill="#7CF5D8"/>
<path d="M460.8 405.1V439.3L445.2 473.5" stroke="#11675E" stroke-width="2.2"/>
<path d="M445.2 476.1C446.636 476.1 447.8 474.936 447.8 473.5C447.8 472.064 446.636 470.9 445.2 470.9C443.764 470.9 442.6 472.064 442.6 473.5C442.6 474.936 443.764 476.1 445.2 476.1Z" fill="#7CF5D8"/>
<path d="M432.6 421.4V455.6L417 489.8" stroke="#11675E" stroke-width="2.2"/>
<path d="M417 492.4C418.436 492.4 419.6 491.236 419.6 489.8C419.6 488.364 418.436 487.2 417 487.2C415.564 487.2 414.4 488.364 414.4 489.8C414.4 491.236 415.564 492.4 417 492.4Z" fill="#7CF5D8"/>
<path d="M404.5 437.6V471.8L388.9 506" stroke="#11675E" stroke-width="2.2"/>
<path d="M388.9 508.6C390.336 508.6 391.5 507.436 391.5 506C391.5 504.564 390.336 503.4 388.9 503.4C387.464 503.4 386.3 504.564 386.3 506C386.3 507.436 387.464 508.6 388.9 508.6Z" fill="#7CF5D8"/>
<path d="M376.3 453.9V488.1L360.7 522.3" stroke="#11675E" stroke-width="2.2"/>
<path d="M360.7 524.9C362.136 524.9 363.3 523.736 363.3 522.3C363.3 520.864 362.136 519.7 360.7 519.7C359.264 519.7 358.1 520.864 358.1 522.3C358.1 523.736 359.264 524.9 360.7 524.9Z" fill="#7CF5D8"/>
<path d="M714.1 275.1V309.3L729.7 343.5" stroke="#11675E" stroke-width="2.2"/>
<path d="M729.7 346.1C731.136 346.1 732.3 344.936 732.3 343.5C732.3 342.064 731.136 340.9 729.7 340.9C728.264 340.9 727.1 342.064 727.1 343.5C727.1 344.936 728.264 346.1 729.7 346.1Z" fill="#7CF5D8"/>
<path d="M742.2 291.4V325.6L757.8 359.8" stroke="#11675E" stroke-width="2.2"/>
<path d="M757.8 362.4C759.236 362.4 760.4 361.236 760.4 359.8C760.4 358.364 759.236 357.2 757.8 357.2C756.364 357.2 755.2 358.364 755.2 359.8C755.2 361.236 756.364 362.4 757.8 362.4Z" fill="#7CF5D8"/>
<path d="M770.4 307.6V341.8L786 376" stroke="#11675E" stroke-width="2.2"/>
<path d="M786 378.6C787.436 378.6 788.6 377.436 788.6 376C788.6 374.564 787.436 373.4 786 373.4C784.564 373.4 783.4 374.564 783.4 376C783.4 377.436 784.564 378.6 786 378.6Z" fill="#7CF5D8"/>
<path d="M798.5 323.9V358.1L814.1 392.3" stroke="#11675E" stroke-width="2.2"/>
<path d="M814.1 394.9C815.536 394.9 816.7 393.736 816.7 392.3C816.7 390.864 815.536 389.7 814.1 389.7C812.664 389.7 811.5 390.864 811.5 392.3C811.5 393.736 812.664 394.9 814.1 394.9Z" fill="#7CF5D8"/>
<path d="M826.7 340.1V374.3L842.2 408.5" stroke="#11675E" stroke-width="2.2"/>
<path d="M842.2 411.1C843.636 411.1 844.8 409.936 844.8 408.5C844.8 407.064 843.636 405.9 842.2 405.9C840.764 405.9 839.6 407.064 839.6 408.5C839.6 409.936 840.764 411.1 842.2 411.1Z" fill="#7CF5D8"/>
<path d="M854.8 356.4V390.6L870.4 424.8" stroke="#11675E" stroke-width="2.2"/>
<path d="M870.4 427.4C871.836 427.4 873 426.236 873 424.8C873 423.364 871.836 422.2 870.4 422.2C868.964 422.2 867.8 423.364 867.8 424.8C867.8 426.236 868.964 427.4 870.4 427.4Z" fill="#7CF5D8"/>
<path d="M882.9 372.6V406.8L898.5 441" stroke="#11675E" stroke-width="2.2"/>
<path d="M898.5 443.6C899.936 443.6 901.1 442.436 901.1 441C901.1 439.564 899.936 438.4 898.5 438.4C897.064 438.4 895.9 439.564 895.9 441C895.9 442.436 897.064 443.6 898.5 443.6Z" fill="#7CF5D8"/>
<path d="M911.1 388.9V423.1L926.7 457.3" stroke="#11675E" stroke-width="2.2"/>
<path d="M926.7 459.9C928.136 459.9 929.3 458.736 929.3 457.3C929.3 455.864 928.136 454.7 926.7 454.7C925.264 454.7 924.1 455.864 924.1 457.3C924.1 458.736 925.264 459.9 926.7 459.9Z" fill="#7CF5D8"/>
<path d="M939.2 405.1V439.3L954.8 473.5" stroke="#11675E" stroke-width="2.2"/>
<path d="M954.8 476.1C956.236 476.1 957.4 474.936 957.4 473.5C957.4 472.064 956.236 470.9 954.8 470.9C953.364 470.9 952.2 472.064 952.2 473.5C952.2 474.936 953.364 476.1 954.8 476.1Z" fill="#7CF5D8"/>
<path d="M967.4 421.4V455.6L983 489.8" stroke="#11675E" stroke-width="2.2"/>
<path d="M983 492.4C984.436 492.4 985.6 491.236 985.6 489.8C985.6 488.364 984.436 487.2 983 487.2C981.564 487.2 980.4 488.364 980.4 489.8C980.4 491.236 981.564 492.4 983 492.4Z" fill="#7CF5D8"/>
<path d="M995.5 437.6V471.8L1011.1 506" stroke="#11675E" stroke-width="2.2"/>
<path d="M1011.1 508.6C1012.54 508.6 1013.7 507.436 1013.7 506C1013.7 504.564 1012.54 503.4 1011.1 503.4C1009.66 503.4 1008.5 504.564 1008.5 506C1008.5 507.436 1009.66 508.6 1011.1 508.6Z" fill="#7CF5D8"/>
<path d="M1023.7 453.9V488.1L1039.3 522.3" stroke="#11675E" stroke-width="2.2"/>
<path d="M1039.3 524.9C1040.74 524.9 1041.9 523.736 1041.9 522.3C1041.9 520.864 1040.74 519.7 1039.3 519.7C1037.86 519.7 1036.7 520.864 1036.7 522.3C1036.7 523.736 1037.86 524.9 1039.3 524.9Z" fill="#7CF5D8"/>
<g filter="url(#filter0_f_156_2)">
<path d="M670.3 348.5C673.061 348.5 675.3 346.261 675.3 343.5C675.3 340.739 673.061 338.5 670.3 338.5C667.538 338.5 665.3 340.739 665.3 343.5C665.3 346.261 667.538 348.5 670.3 348.5Z" fill="#5BE8C8" fill-opacity="0.3"/>
<path d="M642.2 364.8C644.961 364.8 647.2 362.561 647.2 359.8C647.2 357.038 644.961 354.8 642.2 354.8C639.439 354.8 637.2 357.038 637.2 359.8C637.2 362.561 639.439 364.8 642.2 364.8Z" fill="#5BE8C8" fill-opacity="0.3"/>
<path d="M614 381C616.761 381 619 378.761 619 376C619 373.239 616.761 371 614 371C611.239 371 609 373.239 609 376C609 378.761 611.239 381 614 381Z" fill="#5BE8C8" fill-opacity="0.3"/>
<path d="M585.9 397.3C588.661 397.3 590.9 395.061 590.9 392.3C590.9 389.538 588.661 387.3 585.9 387.3C583.138 387.3 580.9 389.538 580.9 392.3C580.9 395.061 583.138 397.3 585.9 397.3Z" fill="#5BE8C8" fill-opacity="0.3"/>
<path d="M557.8 413.5C560.561 413.5 562.8 411.261 562.8 408.5C562.8 405.739 560.561 403.5 557.8 403.5C555.038 403.5 552.8 405.739 552.8 408.5C552.8 411.261 555.038 413.5 557.8 413.5Z" fill="#5BE8C8" fill-opacity="0.3"/>
<path d="M529.6 429.8C532.361 429.8 534.6 427.561 534.6 424.8C534.6 422.038 532.361 419.8 529.6 419.8C526.838 419.8 524.6 422.038 524.6 424.8C524.6 427.561 526.838 429.8 529.6 429.8Z" fill="#5BE8C8" fill-opacity="0.3"/>
<path d="M501.5 446C504.261 446 506.5 443.761 506.5 441C506.5 438.239 504.261 436 501.5 436C498.739 436 496.5 438.239 496.5 441C496.5 443.761 498.739 446 501.5 446Z" fill="#5BE8C8" fill-opacity="0.3"/>
<path d="M473.3 462.3C476.061 462.3 478.3 460.061 478.3 457.3C478.3 454.538 476.061 452.3 473.3 452.3C470.538 452.3 468.3 454.538 468.3 457.3C468.3 460.061 470.538 462.3 473.3 462.3Z" fill="#5BE8C8" fill-opacity="0.3"/>
<path d="M445.2 478.5C447.961 478.5 450.2 476.261 450.2 473.5C450.2 470.739 447.961 468.5 445.2 468.5C442.439 468.5 440.2 470.739 440.2 473.5C440.2 476.261 442.439 478.5 445.2 478.5Z" fill="#5BE8C8" fill-opacity="0.3"/>
<path d="M417 494.8C419.761 494.8 422 492.561 422 489.8C422 487.038 419.761 484.8 417 484.8C414.239 484.8 412 487.038 412 489.8C412 492.561 414.239 494.8 417 494.8Z" fill="#5BE8C8" fill-opacity="0.3"/>
<path d="M388.9 511C391.661 511 393.9 508.761 393.9 506C393.9 503.239 391.661 501 388.9 501C386.138 501 383.9 503.239 383.9 506C383.9 508.761 386.138 511 388.9 511Z" fill="#5BE8C8" fill-opacity="0.3"/>
<path d="M360.7 527.3C363.461 527.3 365.7 525.061 365.7 522.3C365.7 519.538 363.461 517.3 360.7 517.3C357.939 517.3 355.7 519.538 355.7 522.3C355.7 525.061 357.939 527.3 360.7 527.3Z" fill="#5BE8C8" fill-opacity="0.3"/>
<path d="M729.7 348.5C732.461 348.5 734.7 346.261 734.7 343.5C734.7 340.739 732.461 338.5 729.7 338.5C726.939 338.5 724.7 340.739 724.7 343.5C724.7 346.261 726.939 348.5 729.7 348.5Z" fill="#5BE8C8" fill-opacity="0.3"/>
<path d="M757.8 364.8C760.561 364.8 762.8 362.561 762.8 359.8C762.8 357.038 760.561 354.8 757.8 354.8C755.038 354.8 752.8 357.038 752.8 359.8C752.8 362.561 755.038 364.8 757.8 364.8Z" fill="#5BE8C8" fill-opacity="0.3"/>
<path d="M786 381C788.761 381 791 378.761 791 376C791 373.239 788.761 371 786 371C783.239 371 781 373.239 781 376C781 378.761 783.239 381 786 381Z" fill="#5BE8C8" fill-opacity="0.3"/>
<path d="M814.1 397.3C816.861 397.3 819.1 395.061 819.1 392.3C819.1 389.538 816.861 387.3 814.1 387.3C811.338 387.3 809.1 389.538 809.1 392.3C809.1 395.061 811.338 397.3 814.1 397.3Z" fill="#5BE8C8" fill-opacity="0.3"/>
<path d="M842.2 413.5C844.961 413.5 847.2 411.261 847.2 408.5C847.2 405.739 844.961 403.5 842.2 403.5C839.439 403.5 837.2 405.739 837.2 408.5C837.2 411.261 839.439 413.5 842.2 413.5Z" fill="#5BE8C8" fill-opacity="0.3"/>
<path d="M870.4 429.8C873.161 429.8 875.4 427.561 875.4 424.8C875.4 422.038 873.161 419.8 870.4 419.8C867.638 419.8 865.4 422.038 865.4 424.8C865.4 427.561 867.638 429.8 870.4 429.8Z" fill="#5BE8C8" fill-opacity="0.3"/>
<path d="M898.5 446C901.261 446 903.5 443.761 903.5 441C903.5 438.239 901.261 436 898.5 436C895.739 436 893.5 438.239 893.5 441C893.5 443.761 895.739 446 898.5 446Z" fill="#5BE8C8" fill-opacity="0.3"/>
<path d="M926.7 462.3C929.461 462.3 931.7 460.061 931.7 457.3C931.7 454.538 929.461 452.3 926.7 452.3C923.939 452.3 921.7 454.538 921.7 457.3C921.7 460.061 923.939 462.3 926.7 462.3Z" fill="#5BE8C8" fill-opacity="0.3"/>
<path d="M954.8 478.5C957.561 478.5 959.8 476.261 959.8 473.5C959.8 470.739 957.561 468.5 954.8 468.5C952.038 468.5 949.8 470.739 949.8 473.5C949.8 476.261 952.038 478.5 954.8 478.5Z" fill="#5BE8C8" fill-opacity="0.3"/>
<path d="M983 494.8C985.761 494.8 988 492.561 988 489.8C988 487.038 985.761 484.8 983 484.8C980.239 484.8 978 487.038 978 489.8C978 492.561 980.239 494.8 983 494.8Z" fill="#5BE8C8" fill-opacity="0.3"/>
<path d="M1011.1 511C1013.86 511 1016.1 508.761 1016.1 506C1016.1 503.239 1013.86 501 1011.1 501C1008.34 501 1006.1 503.239 1006.1 506C1006.1 508.761 1008.34 511 1011.1 511Z" fill="#5BE8C8" fill-opacity="0.3"/>
<path d="M1039.3 527.3C1042.06 527.3 1044.3 525.061 1044.3 522.3C1044.3 519.538 1042.06 517.3 1039.3 517.3C1036.54 517.3 1034.3 519.538 1034.3 522.3C1034.3 525.061 1036.54 527.3 1039.3 527.3Z" fill="#5BE8C8" fill-opacity="0.3"/>
</g>
<path d="M362.25 426L700 621V657L362.25 462V426Z" fill="url(#paint4_linear_156_2)"/>
<path d="M700 621L1037.75 426V462L700 657V621Z" fill="url(#paint5_linear_156_2)"/>
<path d="M700 231L1037.75 426L700 621L362.25 426L700 231Z" fill="url(#paint6_linear_156_2)" stroke="#2BBBA3" stroke-opacity="0.6" stroke-width="1.6"/>
<path d="M700 231L1037.75 426L700 621L362.25 426L700 231Z" fill="url(#paint7_linear_156_2)"/>
<path d="M700 250.5L1003.97 426L700 601.5L396.03 426L700 250.5Z" stroke="#34D6B8" stroke-opacity="0.3" stroke-width="1.2"/>
<path d="M700 269.2C703.866 269.2 707 266.066 707 262.2C707 258.334 703.866 255.2 700 255.2C696.134 255.2 693 258.334 693 262.2C693 266.066 696.134 269.2 700 269.2Z" fill="#0A4A44" stroke="#3FE0C0" stroke-opacity="0.6" stroke-width="1.3"/>
<path d="M700 265C701.546 265 702.8 263.746 702.8 262.2C702.8 260.654 701.546 259.4 700 259.4C698.454 259.4 697.2 260.654 697.2 262.2C697.2 263.746 698.454 265 700 265Z" fill="#9CFCE4"/>
<path d="M376.3 470.1V513.3L360.7 556.5" stroke="#11675E" stroke-width="2.2"/>
<path d="M360.7 559.1C362.136 559.1 363.3 557.936 363.3 556.5C363.3 555.064 362.136 553.9 360.7 553.9C359.264 553.9 358.1 555.064 358.1 556.5C358.1 557.936 359.264 559.1 360.7 559.1Z" fill="#7CF5D8"/>
<path d="M404.5 486.4V529.6L388.9 572.8" stroke="#11675E" stroke-width="2.2"/>
<path d="M388.9 575.4C390.336 575.4 391.5 574.236 391.5 572.8C391.5 571.364 390.336 570.2 388.9 570.2C387.464 570.2 386.3 571.364 386.3 572.8C386.3 574.236 387.464 575.4 388.9 575.4Z" fill="#7CF5D8"/>
<path d="M432.6 502.6V545.8L417 589" stroke="#11675E" stroke-width="2.2"/>
<path d="M417 591.6C418.436 591.6 419.6 590.436 419.6 589C419.6 587.564 418.436 586.4 417 586.4C415.564 586.4 414.4 587.564 414.4 589C414.4 590.436 415.564 591.6 417 591.6Z" fill="#7CF5D8"/>
<path d="M460.8 518.9V562.1L445.2 605.3" stroke="#11675E" stroke-width="2.2"/>
<path d="M445.2 607.9C446.636 607.9 447.8 606.736 447.8 605.3C447.8 603.864 446.636 602.7 445.2 602.7C443.764 602.7 442.6 603.864 442.6 605.3C442.6 606.736 443.764 607.9 445.2 607.9Z" fill="#7CF5D8"/>
<path d="M488.9 535.1V578.3L473.3 621.5" stroke="#11675E" stroke-width="2.2"/>
<path d="M473.3 624.1C474.736 624.1 475.9 622.936 475.9 621.5C475.9 620.064 474.736 618.9 473.3 618.9C471.864 618.9 470.7 620.064 470.7 621.5C470.7 622.936 471.864 624.1 473.3 624.1Z" fill="#7CF5D8"/>
<path d="M517.1 551.4V594.6L501.5 637.8" stroke="#11675E" stroke-width="2.2"/>
<path d="M501.5 640.4C502.936 640.4 504.1 639.236 504.1 637.8C504.1 636.364 502.936 635.2 501.5 635.2C500.064 635.2 498.9 636.364 498.9 637.8C498.9 639.236 500.064 640.4 501.5 640.4Z" fill="#7CF5D8"/>
<path d="M545.2 567.6V610.8L529.6 654" stroke="#11675E" stroke-width="2.2"/>
<path d="M529.6 656.6C531.036 656.6 532.2 655.436 532.2 654C532.2 652.564 531.036 651.4 529.6 651.4C528.164 651.4 527 652.564 527 654C527 655.436 528.164 656.6 529.6 656.6Z" fill="#7CF5D8"/>
<path d="M573.3 583.9V627.1L557.8 670.3" stroke="#11675E" stroke-width="2.2"/>
<path d="M557.8 672.9C559.236 672.9 560.4 671.736 560.4 670.3C560.4 668.864 559.236 667.7 557.8 667.7C556.364 667.7 555.2 668.864 555.2 670.3C555.2 671.736 556.364 672.9 557.8 672.9Z" fill="#7CF5D8"/>
<path d="M601.5 600.1V643.3L585.9 686.5" stroke="#11675E" stroke-width="2.2"/>
<path d="M585.9 689.1C587.336 689.1 588.5 687.936 588.5 686.5C588.5 685.064 587.336 683.9 585.9 683.9C584.464 683.9 583.3 685.064 583.3 686.5C583.3 687.936 584.464 689.1 585.9 689.1Z" fill="#7CF5D8"/>
<path d="M629.6 616.4V659.6L614 702.8" stroke="#11675E" stroke-width="2.2"/>
<path d="M614 705.4C615.436 705.4 616.6 704.236 616.6 702.8C616.6 701.364 615.436 700.2 614 700.2C612.564 700.2 611.4 701.364 611.4 702.8C611.4 704.236 612.564 705.4 614 705.4Z" fill="#7CF5D8"/>
<path d="M657.8 632.6V675.8L642.2 719" stroke="#11675E" stroke-width="2.2"/>
<path d="M642.2 721.6C643.636 721.6 644.8 720.436 644.8 719C644.8 717.564 643.636 716.4 642.2 716.4C640.764 716.4 639.6 717.564 639.6 719C639.6 720.436 640.764 721.6 642.2 721.6Z" fill="#7CF5D8"/>
<path d="M685.9 648.9V692.1L670.3 735.3" stroke="#11675E" stroke-width="2.2"/>
<path d="M670.3 737.9C671.736 737.9 672.9 736.736 672.9 735.3C672.9 733.864 671.736 732.7 670.3 732.7C668.864 732.7 667.7 733.864 667.7 735.3C667.7 736.736 668.864 737.9 670.3 737.9Z" fill="#7CF5D8"/>
<path d="M714.1 648.9V692.1L729.7 735.3" stroke="#11675E" stroke-width="2.2"/>
<path d="M729.7 737.9C731.136 737.9 732.3 736.736 732.3 735.3C732.3 733.864 731.136 732.7 729.7 732.7C728.264 732.7 727.1 733.864 727.1 735.3C727.1 736.736 728.264 737.9 729.7 737.9Z" fill="#7CF5D8"/>
<path d="M742.2 632.6V675.8L757.8 719" stroke="#11675E" stroke-width="2.2"/>
<path d="M757.8 721.6C759.236 721.6 760.4 720.436 760.4 719C760.4 717.564 759.236 716.4 757.8 716.4C756.364 716.4 755.2 717.564 755.2 719C755.2 720.436 756.364 721.6 757.8 721.6Z" fill="#7CF5D8"/>
<path d="M770.4 616.4V659.6L786 702.8" stroke="#11675E" stroke-width="2.2"/>
<path d="M786 705.4C787.436 705.4 788.6 704.236 788.6 702.8C788.6 701.364 787.436 700.2 786 700.2C784.564 700.2 783.4 701.364 783.4 702.8C783.4 704.236 784.564 705.4 786 705.4Z" fill="#7CF5D8"/>
<path d="M798.5 600.1V643.3L814.1 686.5" stroke="#11675E" stroke-width="2.2"/>
<path d="M814.1 689.1C815.536 689.1 816.7 687.936 816.7 686.5C816.7 685.064 815.536 683.9 814.1 683.9C812.664 683.9 811.5 685.064 811.5 686.5C811.5 687.936 812.664 689.1 814.1 689.1Z" fill="#7CF5D8"/>
<path d="M826.7 583.9V627.1L842.2 670.3" stroke="#11675E" stroke-width="2.2"/>
<path d="M842.2 672.9C843.636 672.9 844.8 671.736 844.8 670.3C844.8 668.864 843.636 667.7 842.2 667.7C840.764 667.7 839.6 668.864 839.6 670.3C839.6 671.736 840.764 672.9 842.2 672.9Z" fill="#7CF5D8"/>
<path d="M854.8 567.6V610.8L870.4 654" stroke="#11675E" stroke-width="2.2"/>
<path d="M870.4 656.6C871.836 656.6 873 655.436 873 654C873 652.564 871.836 651.4 870.4 651.4C868.964 651.4 867.8 652.564 867.8 654C867.8 655.436 868.964 656.6 870.4 656.6Z" fill="#7CF5D8"/>
<path d="M882.9 551.4V594.6L898.5 637.8" stroke="#11675E" stroke-width="2.2"/>
<path d="M898.5 640.4C899.936 640.4 901.1 639.236 901.1 637.8C901.1 636.364 899.936 635.2 898.5 635.2C897.064 635.2 895.9 636.364 895.9 637.8C895.9 639.236 897.064 640.4 898.5 640.4Z" fill="#7CF5D8"/>
<path d="M911.1 535.1V578.3L926.7 621.5" stroke="#11675E" stroke-width="2.2"/>
<path d="M926.7 624.1C928.136 624.1 929.3 622.936 929.3 621.5C929.3 620.064 928.136 618.9 926.7 618.9C925.264 618.9 924.1 620.064 924.1 621.5C924.1 622.936 925.264 624.1 926.7 624.1Z" fill="#7CF5D8"/>
<path d="M939.2 518.9V562.1L954.8 605.3" stroke="#11675E" stroke-width="2.2"/>
<path d="M954.8 607.9C956.236 607.9 957.4 606.736 957.4 605.3C957.4 603.864 956.236 602.7 954.8 602.7C953.364 602.7 952.2 603.864 952.2 605.3C952.2 606.736 953.364 607.9 954.8 607.9Z" fill="#7CF5D8"/>
<path d="M967.4 502.6V545.8L983 589" stroke="#11675E" stroke-width="2.2"/>
<path d="M983 591.6C984.436 591.6 985.6 590.436 985.6 589C985.6 587.564 984.436 586.4 983 586.4C981.564 586.4 980.4 587.564 980.4 589C980.4 590.436 981.564 591.6 983 591.6Z" fill="#7CF5D8"/>
<path d="M995.5 486.4V529.6L1011.1 572.8" stroke="#11675E" stroke-width="2.2"/>
<path d="M1011.1 575.4C1012.54 575.4 1013.7 574.236 1013.7 572.8C1013.7 571.364 1012.54 570.2 1011.1 570.2C1009.66 570.2 1008.5 571.364 1008.5 572.8C1008.5 574.236 1009.66 575.4 1011.1 575.4Z" fill="#7CF5D8"/>
<path d="M1023.7 470.1V513.3L1039.3 556.5" stroke="#11675E" stroke-width="2.2"/>
<path d="M1039.3 559.1C1040.74 559.1 1041.9 557.936 1041.9 556.5C1041.9 555.064 1040.74 553.9 1039.3 553.9C1037.86 553.9 1036.7 555.064 1036.7 556.5C1036.7 557.936 1037.86 559.1 1039.3 559.1Z" fill="#7CF5D8"/>
<g filter="url(#filter1_f_156_2)">
<path d="M360.7 561.5C363.461 561.5 365.7 559.261 365.7 556.5C365.7 553.739 363.461 551.5 360.7 551.5C357.939 551.5 355.7 553.739 355.7 556.5C355.7 559.261 357.939 561.5 360.7 561.5Z" fill="#7CF5D8" fill-opacity="0.55"/>
<path d="M388.9 577.8C391.661 577.8 393.9 575.561 393.9 572.8C393.9 570.038 391.661 567.8 388.9 567.8C386.138 567.8 383.9 570.038 383.9 572.8C383.9 575.561 386.138 577.8 388.9 577.8Z" fill="#7CF5D8" fill-opacity="0.55"/>
<path d="M417 594C419.761 594 422 591.761 422 589C422 586.239 419.761 584 417 584C414.239 584 412 586.239 412 589C412 591.761 414.239 594 417 594Z" fill="#7CF5D8" fill-opacity="0.55"/>
<path d="M445.2 610.3C447.961 610.3 450.2 608.061 450.2 605.3C450.2 602.538 447.961 600.3 445.2 600.3C442.439 600.3 440.2 602.538 440.2 605.3C440.2 608.061 442.439 610.3 445.2 610.3Z" fill="#7CF5D8" fill-opacity="0.55"/>
<path d="M473.3 626.5C476.061 626.5 478.3 624.261 478.3 621.5C478.3 618.739 476.061 616.5 473.3 616.5C470.538 616.5 468.3 618.739 468.3 621.5C468.3 624.261 470.538 626.5 473.3 626.5Z" fill="#7CF5D8" fill-opacity="0.55"/>
<path d="M501.5 642.8C504.261 642.8 506.5 640.561 506.5 637.8C506.5 635.038 504.261 632.8 501.5 632.8C498.739 632.8 496.5 635.038 496.5 637.8C496.5 640.561 498.739 642.8 501.5 642.8Z" fill="#7CF5D8" fill-opacity="0.55"/>
<path d="M529.6 659C532.361 659 534.6 656.761 534.6 654C534.6 651.239 532.361 649 529.6 649C526.838 649 524.6 651.239 524.6 654C524.6 656.761 526.838 659 529.6 659Z" fill="#7CF5D8" fill-opacity="0.55"/>
<path d="M557.8 675.3C560.561 675.3 562.8 673.061 562.8 670.3C562.8 667.538 560.561 665.3 557.8 665.3C555.038 665.3 552.8 667.538 552.8 670.3C552.8 673.061 555.038 675.3 557.8 675.3Z" fill="#7CF5D8" fill-opacity="0.55"/>
<path d="M585.9 691.5C588.661 691.5 590.9 689.261 590.9 686.5C590.9 683.739 588.661 681.5 585.9 681.5C583.138 681.5 580.9 683.739 580.9 686.5C580.9 689.261 583.138 691.5 585.9 691.5Z" fill="#7CF5D8" fill-opacity="0.55"/>
<path d="M614 707.8C616.761 707.8 619 705.561 619 702.8C619 700.038 616.761 697.8 614 697.8C611.239 697.8 609 700.038 609 702.8C609 705.561 611.239 707.8 614 707.8Z" fill="#7CF5D8" fill-opacity="0.55"/>
<path d="M642.2 724C644.961 724 647.2 721.761 647.2 719C647.2 716.239 644.961 714 642.2 714C639.439 714 637.2 716.239 637.2 719C637.2 721.761 639.439 724 642.2 724Z" fill="#7CF5D8" fill-opacity="0.55"/>
<path d="M670.3 740.3C673.061 740.3 675.3 738.061 675.3 735.3C675.3 732.538 673.061 730.3 670.3 730.3C667.538 730.3 665.3 732.538 665.3 735.3C665.3 738.061 667.538 740.3 670.3 740.3Z" fill="#7CF5D8" fill-opacity="0.55"/>
<path d="M729.7 740.3C732.461 740.3 734.7 738.061 734.7 735.3C734.7 732.538 732.461 730.3 729.7 730.3C726.939 730.3 724.7 732.538 724.7 735.3C724.7 738.061 726.939 740.3 729.7 740.3Z" fill="#7CF5D8" fill-opacity="0.55"/>
<path d="M757.8 724C760.561 724 762.8 721.761 762.8 719C762.8 716.239 760.561 714 757.8 714C755.038 714 752.8 716.239 752.8 719C752.8 721.761 755.038 724 757.8 724Z" fill="#7CF5D8" fill-opacity="0.55"/>
<path d="M786 707.8C788.761 707.8 791 705.561 791 702.8C791 700.038 788.761 697.8 786 697.8C783.239 697.8 781 700.038 781 702.8C781 705.561 783.239 707.8 786 707.8Z" fill="#7CF5D8" fill-opacity="0.55"/>
<path d="M814.1 691.5C816.861 691.5 819.1 689.261 819.1 686.5C819.1 683.739 816.861 681.5 814.1 681.5C811.338 681.5 809.1 683.739 809.1 686.5C809.1 689.261 811.338 691.5 814.1 691.5Z" fill="#7CF5D8" fill-opacity="0.55"/>
<path d="M842.2 675.3C844.961 675.3 847.2 673.061 847.2 670.3C847.2 667.538 844.961 665.3 842.2 665.3C839.439 665.3 837.2 667.538 837.2 670.3C837.2 673.061 839.439 675.3 842.2 675.3Z" fill="#7CF5D8" fill-opacity="0.55"/>
<path d="M870.4 659C873.161 659 875.4 656.761 875.4 654C875.4 651.239 873.161 649 870.4 649C867.638 649 865.4 651.239 865.4 654C865.4 656.761 867.638 659 870.4 659Z" fill="#7CF5D8" fill-opacity="0.55"/>
<path d="M898.5 642.8C901.261 642.8 903.5 640.561 903.5 637.8C903.5 635.038 901.261 632.8 898.5 632.8C895.739 632.8 893.5 635.038 893.5 637.8C893.5 640.561 895.739 642.8 898.5 642.8Z" fill="#7CF5D8" fill-opacity="0.55"/>
<path d="M926.7 626.5C929.461 626.5 931.7 624.261 931.7 621.5C931.7 618.739 929.461 616.5 926.7 616.5C923.939 616.5 921.7 618.739 921.7 621.5C921.7 624.261 923.939 626.5 926.7 626.5Z" fill="#7CF5D8" fill-opacity="0.55"/>
<path d="M954.8 610.3C957.561 610.3 959.8 608.061 959.8 605.3C959.8 602.538 957.561 600.3 954.8 600.3C952.038 600.3 949.8 602.538 949.8 605.3C949.8 608.061 952.038 610.3 954.8 610.3Z" fill="#7CF5D8" fill-opacity="0.55"/>
<path d="M983 594C985.761 594 988 591.761 988 589C988 586.239 985.761 584 983 584C980.239 584 978 586.239 978 589C978 591.761 980.239 594 983 594Z" fill="#7CF5D8" fill-opacity="0.55"/>
<path d="M1011.1 577.8C1013.86 577.8 1016.1 575.561 1016.1 572.8C1016.1 570.038 1013.86 567.8 1011.1 567.8C1008.34 567.8 1006.1 570.038 1006.1 572.8C1006.1 575.561 1008.34 577.8 1011.1 577.8Z" fill="#7CF5D8" fill-opacity="0.55"/>
<path d="M1039.3 561.5C1042.06 561.5 1044.3 559.261 1044.3 556.5C1044.3 553.739 1042.06 551.5 1039.3 551.5C1036.54 551.5 1034.3 553.739 1034.3 556.5C1034.3 559.261 1036.54 561.5 1039.3 561.5Z" fill="#7CF5D8" fill-opacity="0.55"/>
</g>
<g filter="url(#filter2_f_156_2)">
<path d="M638.49 355.287L713.438 312.016L725.248 318.834L650.3 362.106L638.49 355.287ZM687.569 351.391C692.886 348.322 698.783 346.137 705.258 344.839C711.734 343.54 717.767 343.245 723.356 343.953C728.946 344.661 733.871 346.246 738.131 348.705C745.289 352.838 748.1 357.708 746.567 363.316C745.067 368.904 740.568 373.863 733.07 378.192C727.48 381.419 721.362 383.712 714.716 385.07C708.104 386.447 701.918 386.791 696.158 386.103C690.466 385.414 685.558 383.879 681.434 381.498C674.822 377.681 671.857 373.056 672.539 367.625C673.22 362.194 678.231 356.783 687.569 351.391ZM698.868 358.8C693.38 361.968 690.296 364.989 689.614 367.862C688.967 370.715 690.16 373.017 693.193 374.768C696.158 376.48 700.112 377.13 705.054 376.716C709.996 376.303 715.228 374.503 720.749 371.315C726.134 368.206 729.167 365.215 729.849 362.342C730.531 359.469 729.372 357.167 726.373 355.435C723.407 353.723 719.437 353.064 714.461 353.457C709.519 353.871 704.321 355.651 698.868 358.8ZM791.914 399.71L777.753 394.485C782.592 390.707 782.763 387.52 778.264 384.922C775.367 383.249 771.805 382.61 767.579 383.004C763.352 383.397 758.325 385.276 752.497 388.641C746.055 392.36 742.392 395.499 741.505 398.057C740.619 400.615 741.659 402.75 744.624 404.462C746.839 405.741 749.413 406.361 752.344 406.322C755.309 406.263 759.024 405.298 763.489 403.429L772.691 411.517C757.218 417.695 743.806 417.508 732.456 410.956C725.197 406.764 722.572 402.061 724.583 396.847C726.594 391.632 731.485 386.782 739.256 382.295C748.561 376.923 757.61 373.981 766.403 373.47C775.264 372.958 782.916 374.562 789.358 378.281C794.572 381.292 797.435 384.538 797.947 388.021C798.492 391.524 796.481 395.42 791.914 399.71ZM809.143 410.247L800.81 402.721C807.592 400.3 813.659 399.257 819.01 399.592C824.429 399.926 829.933 401.707 835.523 404.934C840.499 407.807 843.601 410.405 844.828 412.727C846.055 415.049 846.02 417.233 844.725 419.279C843.464 421.306 839.664 424.15 833.325 427.81L816.454 437.432C811.75 440.148 808.427 442.283 806.484 443.837C804.576 445.372 802.837 447.182 801.27 449.268L789.613 442.538L794.01 438.229C789.613 438.446 785.66 438.229 782.149 437.58C778.673 436.95 775.639 435.887 773.049 434.392C768.721 431.893 766.624 429.01 766.761 425.744C766.931 422.457 769.436 419.417 774.276 416.623C777.344 414.852 780.581 413.632 783.99 412.963C787.398 412.294 790.806 412.156 794.215 412.55C797.623 412.943 802.105 414.134 807.66 416.121C814.375 418.542 819.351 420.057 822.588 420.667C825.588 418.935 827.326 417.676 827.803 416.889C828.348 416.101 828.331 415.206 827.752 414.203C827.241 413.199 825.946 412.097 823.867 410.897C821.753 409.677 819.606 408.988 817.425 408.831C815.278 408.693 812.517 409.165 809.143 410.247ZM813.233 426.068C811.12 425.557 808.069 424.622 804.081 423.264C799.48 421.71 796.038 420.942 793.754 420.962C791.471 420.982 789.409 421.523 787.568 422.585C785.489 423.786 784.348 425.153 784.143 426.688C784.007 428.223 784.876 429.532 786.75 430.614C788.42 431.578 790.636 432.208 793.397 432.503C796.191 432.778 798.679 432.641 800.861 432.09C803.076 431.558 806.246 430.102 810.37 427.721L813.233 426.068ZM810.37 454.522L885.318 411.251L897.128 418.069L822.179 461.341L810.37 454.522Z" fill="#A6FFEC"/>
<path d="M637.11 483.191L623.613 475.398L635.27 462.47L610.73 448.302L588.644 455.209L575.454 447.594L674.329 418.136L687.468 425.722L637.11 483.191ZM643.91 452.877L663.286 431.95L627.141 443.196L643.91 452.877ZM643.296 486.762L718.244 443.491L730.616 450.634L655.668 493.905L643.296 486.762Z" fill="#7CF5D8"/>
</g>
<path d="M250.5 550.9C259.337 550.9 266.5 543.736 266.5 534.9C266.5 526.063 259.337 518.9 250.5 518.9C241.663 518.9 234.5 526.063 234.5 534.9C234.5 543.736 241.663 550.9 250.5 550.9Z" fill="url(#paint8_radial_156_2)"/>
<path d="M250.5 539.4C252.985 539.4 255 537.385 255 534.9C255 532.415 252.985 530.4 250.5 530.4C248.015 530.4 246 532.415 246 534.9C246 537.385 248.015 539.4 250.5 539.4Z" fill="#9CFCE4"/>
<path d="M1058.5 612.4C1067.34 612.4 1074.5 605.236 1074.5 596.4C1074.5 587.563 1067.34 580.4 1058.5 580.4C1049.66 580.4 1042.5 587.563 1042.5 596.4C1042.5 605.236 1049.66 612.4 1058.5 612.4Z" fill="url(#paint9_radial_156_2)"/>
<path d="M1058.5 600.9C1060.99 600.9 1063 598.885 1063 596.4C1063 593.915 1060.99 591.9 1058.5 591.9C1056.01 591.9 1054 593.915 1054 596.4C1054 598.885 1056.01 600.9 1058.5 600.9Z" fill="#9CFCE4"/>
<path d="M362.3 630.4C371.137 630.4 378.3 623.236 378.3 614.4C378.3 605.563 371.137 598.4 362.3 598.4C353.463 598.4 346.3 605.563 346.3 614.4C346.3 623.236 353.463 630.4 362.3 630.4Z" fill="url(#paint10_radial_156_2)"/>
<path d="M362.3 618.9C364.785 618.9 366.8 616.885 366.8 614.4C366.8 611.915 364.785 609.9 362.3 609.9C359.815 609.9 357.8 611.915 357.8 614.4C357.8 616.885 359.815 618.9 362.3 618.9Z" fill="#9CFCE4"/>
<path d="M726 795.4C734.837 795.4 742 788.236 742 779.4C742 770.563 734.837 763.4 726 763.4C717.163 763.4 710 770.563 710 779.4C710 788.236 717.163 795.4 726 795.4Z" fill="url(#paint11_radial_156_2)"/>
<path d="M726 783.9C728.485 783.9 730.5 781.885 730.5 779.4C730.5 776.915 728.485 774.9 726 774.9C723.515 774.9 721.5 776.915 721.5 779.4C721.5 781.885 723.515 783.9 726 783.9Z" fill="#9CFCE4"/>
<path d="M1058.5 498.4C1067.34 498.4 1074.5 491.236 1074.5 482.4C1074.5 473.563 1067.34 466.4 1058.5 466.4C1049.66 466.4 1042.5 473.563 1042.5 482.4C1042.5 491.236 1049.66 498.4 1058.5 498.4Z" fill="url(#paint12_radial_156_2)"/>
<path d="M1058.5 486.9C1060.99 486.9 1063 484.885 1063 482.4C1063 479.915 1060.99 477.9 1058.5 477.9C1056.01 477.9 1054 479.915 1054 482.4C1054 484.885 1056.01 486.9 1058.5 486.9Z" fill="#9CFCE4"/>
<defs>
<filter id="filter0_f_156_2" x="323.7" y="306.5" width="752.6" height="252.8" filterUnits="userSpaceOnUse" color-interpolation-filters="sRGB">
<feFlood flood-opacity="0" result="BackgroundImageFix"/>
<feBlend mode="normal" in="SourceGraphic" in2="BackgroundImageFix" result="shape"/>
<feGaussianBlur stdDeviation="16" result="effect1_foregroundBlur_156_2"/>
</filter>
<filter id="filter1_f_156_2" x="341.7" y="537.5" width="716.6" height="216.8" filterUnits="userSpaceOnUse" color-interpolation-filters="sRGB">
<feFlood flood-opacity="0" result="BackgroundImageFix"/>
<feBlend mode="normal" in="SourceGraphic" in2="BackgroundImageFix" result="shape"/>
<feGaussianBlur stdDeviation="7" result="effect1_foregroundBlur_156_2"/>
</filter>
<filter id="filter2_f_156_2" x="573.426" y="309.988" width="325.729" height="185.945" filterUnits="userSpaceOnUse" color-interpolation-filters="sRGB">
<feFlood flood-opacity="0" result="BackgroundImageFix"/>
<feBlend mode="normal" in="SourceGraphic" in2="BackgroundImageFix" result="shape"/>
<feGaussianBlur stdDeviation="1.014" result="effect1_foregroundBlur_156_2"/>
</filter>
<radialGradient id="paint0_radial_156_2" cx="0" cy="0" r="1" gradientUnits="userSpaceOnUse" gradientTransform="translate(700 610) scale(560 190)">
<stop stop-color="#04221E" stop-opacity="0.45"/>
<stop offset="0.7" stop-color="#04221E" stop-opacity="0.18"/>
<stop offset="1" stop-color="#04221E" stop-opacity="0"/>
</radialGradient>
<linearGradient id="paint1_linear_156_2" x1="128.42" y1="540" x2="128.42" y2="912" gradientUnits="userSpaceOnUse">
<stop stop-color="#05332E"/>
<stop offset="1" stop-color="#021A17"/>
</linearGradient>
<linearGradient id="paint2_linear_156_2" x1="700" y1="540" x2="700" y2="912" gradientUnits="userSpaceOnUse">
<stop stop-color="#073E38"/>
<stop offset="1" stop-color="#03231F"/>
</linearGradient>
<linearGradient id="paint3_linear_156_2" x1="128.42" y1="210" x2="348.256" y2="971.539" gradientUnits="userSpaceOnUse">
<stop stop-color="#0E5C53"/>
<stop offset="0.55" stop-color="#0A4A44"/>
<stop offset="1" stop-color="#073B35"/>
</linearGradient>
<linearGradient id="paint4_linear_156_2" x1="362.25" y1="426" x2="362.25" y2="657" gradientUnits="userSpaceOnUse">
<stop stop-color="#0B4A44"/>
<stop offset="1" stop-color="#05312C"/>
</linearGradient>
<linearGradient id="paint5_linear_156_2" x1="700" y1="426" x2="700" y2="657" gradientUnits="userSpaceOnUse">
<stop stop-color="#0E5950"/>
<stop offset="1" stop-color="#073E38"/>
</linearGradient>
<linearGradient id="paint6_linear_156_2" x1="362.25" y1="231" x2="526.3" y2="704.571" gradientUnits="userSpaceOnUse">
<stop stop-color="#1C8579"/>
<stop offset="0.45" stop-color="#106158"/>
<stop offset="1" stop-color="#0A4840"/>
</linearGradient>
<linearGradient id="paint7_linear_156_2" x1="362.25" y1="231" x2="700" y2="816" gradientUnits="userSpaceOnUse">
<stop stop-color="white" stop-opacity="0.18"/>
<stop offset="0.4" stop-color="white" stop-opacity="0"/>
</linearGradient>
<radialGradient id="paint8_radial_156_2" cx="0" cy="0" r="1" gradientUnits="userSpaceOnUse" gradientTransform="translate(250.5 534.9) scale(16)">
<stop stop-color="#9CFCE4"/>
<stop offset="0.5" stop-color="#3FE0C0" stop-opacity="0.45"/>
<stop offset="1" stop-color="#3FE0C0" stop-opacity="0"/>
</radialGradient>
<radialGradient id="paint9_radial_156_2" cx="0" cy="0" r="1" gradientUnits="userSpaceOnUse" gradientTransform="translate(1058.5 596.4) scale(16)">
<stop stop-color="#9CFCE4"/>
<stop offset="0.5" stop-color="#3FE0C0" stop-opacity="0.45"/>
<stop offset="1" stop-color="#3FE0C0" stop-opacity="0"/>
</radialGradient>
<radialGradient id="paint10_radial_156_2" cx="0" cy="0" r="1" gradientUnits="userSpaceOnUse" gradientTransform="translate(362.3 614.4) scale(16)">
<stop stop-color="#9CFCE4"/>
<stop offset="0.5" stop-color="#3FE0C0" stop-opacity="0.45"/>
<stop offset="1" stop-color="#3FE0C0" stop-opacity="0"/>
</radialGradient>
<radialGradient id="paint11_radial_156_2" cx="0" cy="0" r="1" gradientUnits="userSpaceOnUse" gradientTransform="translate(726 779.4) scale(16)">
<stop stop-color="#9CFCE4"/>
<stop offset="0.5" stop-color="#3FE0C0" stop-opacity="0.45"/>
<stop offset="1" stop-color="#3FE0C0" stop-opacity="0"/>
</radialGradient>
<radialGradient id="paint12_radial_156_2" cx="0" cy="0" r="1" gradientUnits="userSpaceOnUse" gradientTransform="translate(1058.5 482.4) scale(16)">
<stop stop-color="#9CFCE4"/>
<stop offset="0.5" stop-color="#3FE0C0" stop-opacity="0.45"/>
<stop offset="1" stop-color="#3FE0C0" stop-opacity="0"/>
</radialGradient>
</defs>
</svg>

