<svg width="2257" height="476" viewBox="0 0 2257 476" fill="none" xmlns="http://www.w3.org/2000/svg">
<g clip-path="url(#clip0_138_51)">
<mask id="path-1-outside-1_138_51" maskUnits="userSpaceOnUse" x="21" y="97" width="370" height="370" fill="black">
<rect fill="white" x="21" y="97" width="370" height="370"/>
<path d="M173.781 105.226L163.8 107.085L163.507 120.882L163.213 134.68L154.211 137.909L145.208 141.04L136.695 130.374L128.181 119.61L124.659 121.665C122.701 122.839 118.689 125.09 115.754 126.754C112.818 128.417 110.274 129.885 110.078 129.983C109.883 130.081 111.546 135.756 113.699 142.606C115.95 149.456 117.711 155.621 117.613 156.208C117.613 156.795 114.384 159.828 110.372 162.862L103.228 168.44L92.2688 161.59C86.2997 157.871 81.0155 154.74 80.6241 154.544C80.1349 154.446 76.71 157.871 72.8936 162.079L66.0438 169.809L74.1657 180.769L82.2876 191.729L77.0035 199.753C72.5022 206.505 71.328 207.581 69.4687 207.19C68.2945 206.896 62.5211 205.624 56.6498 204.254C50.7786 202.884 45.8859 201.906 45.6902 202.101C45.2009 202.493 37.4704 220.596 37.4704 221.085C37.4704 221.281 42.5588 224.804 48.8215 228.816C55.182 233.023 59.9769 236.742 59.6833 237.427C59.3898 238.014 58.5091 242.026 57.5305 246.332C56.552 250.637 55.6713 254.258 55.5734 254.453C55.3777 254.747 32.0884 257.585 29.9356 257.585C28.5657 257.585 27.8807 261.107 27.3914 271.48L27 278.917L32.9691 280.58C36.2962 281.461 42.0696 283.027 45.9837 284.201C53.9099 286.452 53.4206 285.865 54.5949 297.901L55.182 304.457L43.1459 310.524C36.4919 313.851 30.9142 316.689 30.7185 316.884C30.2292 317.374 34.6326 336.26 35.4155 336.945C35.709 337.238 41.9717 336.945 49.2129 336.357C56.4541 335.672 62.7168 335.281 63.0104 335.477C63.3039 335.672 65.1632 339.489 67.2181 343.99L70.8387 352.21L65.1632 357.494C62.1297 360.43 57.3348 364.833 54.6928 367.279L49.8979 371.781L55.6713 380.196C58.8026 384.893 61.934 388.709 62.6189 388.709C63.3039 388.709 68.9795 386.459 75.34 383.817C81.7005 381.077 87.2782 378.924 87.8653 378.924C88.3546 378.924 91.5838 381.957 94.813 385.578L100.782 392.232L93.9323 404.758C90.2138 411.705 87.5718 417.576 88.061 417.968C88.5503 418.261 92.3666 421.099 96.5744 424.23L104.207 430.004L107.338 427.166C109.002 425.698 113.503 421.491 117.319 417.87C121.234 414.152 124.952 411.216 125.637 411.216C126.42 411.216 130.236 412.977 134.15 415.13C142.272 419.729 141.881 418.261 139.337 435.679C138.26 442.431 137.771 448.205 138.162 448.498C138.456 448.89 142.468 450.358 147.067 451.825C151.666 453.293 155.874 454.761 156.461 454.957C157.146 455.152 160.473 449.77 164.192 442.823C167.714 435.973 170.846 430.2 171.041 430.004C171.237 429.808 175.347 430.2 180.24 430.787L189.047 432.059L190.123 437.049C190.612 439.789 191.884 446.248 192.863 451.336L194.526 460.632L204.997 460.926C214.293 461.122 215.467 461.024 215.957 459.458C216.25 458.479 217.424 452.217 218.501 445.563C219.675 438.811 220.751 433.037 221.045 432.646C221.241 432.255 224.666 431.472 228.58 430.787C232.396 430.2 236.31 429.417 237.191 429.221C238.463 428.83 240.518 431.961 245.998 442.04C249.912 449.281 253.435 455.25 253.728 455.25C254.022 455.25 258.425 453.782 263.514 451.923C271.048 449.281 272.81 448.205 272.614 446.737C272.418 445.758 271.44 439.104 270.363 431.863C269.287 424.72 268.504 418.653 268.602 418.555C268.798 418.457 272.418 416.5 276.626 414.249C285.629 409.455 283.28 408.574 297.665 421.686C302.558 426.188 306.961 429.808 307.45 429.808C308.429 429.808 322.52 418.261 323.009 417.087C323.107 416.696 321.737 413.662 319.878 410.433C318.019 407.106 314.789 401.235 312.832 397.418L309.212 390.569L315.768 383.915L322.422 377.26L336.219 382.936L350.017 388.514L355.203 380.783C358.041 376.575 360.389 372.759 360.389 372.27C360.389 371.781 355.79 366.79 350.115 361.212C338.568 349.861 338.959 351.133 343.754 340.369L346.788 333.617L357.258 334.302C363.031 334.694 369.783 335.183 372.23 335.575L376.731 336.064L378.884 327.453C380.058 322.658 381.232 318.059 381.428 317.178C381.819 316.102 378.786 314.34 369.001 310.035C361.857 306.903 355.595 303.968 355.105 303.576C354.616 303.087 354.812 298.781 355.497 293.399L356.769 284.005L360.781 282.929C362.934 282.244 369.196 280.58 374.578 279.113L384.364 276.471L384.07 266.783C383.874 261.401 383.385 256.802 383.092 256.41C382.7 256.117 376.046 255.236 368.218 254.453L354.029 253.181L351.778 244.374C350.604 239.482 349.821 235.078 350.017 234.393C350.31 233.806 355.203 229.99 361.074 226.076C366.848 222.162 372.034 218.639 372.523 218.247C373.306 217.758 367.239 201.906 365.38 199.655C365.086 199.264 358.432 200.536 350.702 202.395C342.971 204.254 336.513 205.624 336.415 205.526C334.262 202.591 326.14 189.967 326.14 189.478C326.14 189.185 329.859 183.901 334.458 177.931C339.057 171.864 342.776 166.58 342.776 166.091C342.776 165.602 339.644 161.981 335.828 158.165L328.88 151.119L317.921 158.165C311.952 162.079 306.57 165.504 305.885 165.895C305.102 166.385 295.512 159.926 290.032 155.229C289.836 155.034 291.5 148.869 293.751 141.627C296.099 134.386 297.665 128.026 297.273 127.439C296.588 126.362 281.715 118.632 280.247 118.632C279.758 118.632 275.745 123.427 271.244 129.396C261.948 141.53 263.807 140.942 250.793 136.148L243.454 133.506L243.16 119.708L242.866 106.009L239.735 105.519C230.83 104.051 223.785 103.269 223.296 103.562C222.904 103.758 220.751 109.433 218.403 116.185L214.097 128.417L203.823 128.221L193.548 127.928L189.144 115.99C186.698 109.433 184.447 103.856 184.252 103.66C183.958 103.464 179.261 104.247 173.781 105.226ZM224.568 181.748C266.547 190.457 297.273 220.694 306.178 261.792C308.233 271.382 308.233 291.051 306.08 301.13C298.937 335.085 276.626 362.876 245.998 376.086C231.515 382.251 222.024 384.208 205.78 384.208C189.536 384.208 180.044 382.251 165.562 376.086C119.179 356.124 94.5194 303.968 108.023 254.551C111.057 243.298 119.57 226.956 127.203 217.465C142.174 199.068 165.659 185.173 188.557 181.356C197.071 179.888 216.837 180.182 224.568 181.748Z"/>
</mask>
<path d="M173.781 105.226L163.8 107.085L163.507 120.882L163.213 134.68L154.211 137.909L145.208 141.04L136.695 130.374L128.181 119.61L124.659 121.665C122.701 122.839 118.689 125.09 115.754 126.754C112.818 128.417 110.274 129.885 110.078 129.983C109.883 130.081 111.546 135.756 113.699 142.606C115.95 149.456 117.711 155.621 117.613 156.208C117.613 156.795 114.384 159.828 110.372 162.862L103.228 168.44L92.2688 161.59C86.2997 157.871 81.0155 154.74 80.6241 154.544C80.1349 154.446 76.71 157.871 72.8936 162.079L66.0438 169.809L74.1657 180.769L82.2876 191.729L77.0035 199.753C72.5022 206.505 71.328 207.581 69.4687 207.19C68.2945 206.896 62.5211 205.624 56.6498 204.254C50.7786 202.884 45.8859 201.906 45.6902 202.101C45.2009 202.493 37.4704 220.596 37.4704 221.085C37.4704 221.281 42.5588 224.804 48.8215 228.816C55.182 233.023 59.9769 236.742 59.6833 237.427C59.3898 238.014 58.5091 242.026 57.5305 246.332C56.552 250.637 55.6713 254.258 55.5734 254.453C55.3777 254.747 32.0884 257.585 29.9356 257.585C28.5657 257.585 27.8807 261.107 27.3914 271.48L27 278.917L32.9691 280.58C36.2962 281.461 42.0696 283.027 45.9837 284.201C53.9099 286.452 53.4206 285.865 54.5949 297.901L55.182 304.457L43.1459 310.524C36.4919 313.851 30.9142 316.689 30.7185 316.884C30.2292 317.374 34.6326 336.26 35.4155 336.945C35.709 337.238 41.9717 336.945 49.2129 336.357C56.4541 335.672 62.7168 335.281 63.0104 335.477C63.3039 335.672 65.1632 339.489 67.2181 343.99L70.8387 352.21L65.1632 357.494C62.1297 360.43 57.3348 364.833 54.6928 367.279L49.8979 371.781L55.6713 380.196C58.8026 384.893 61.934 388.709 62.6189 388.709C63.3039 388.709 68.9795 386.459 75.34 383.817C81.7005 381.077 87.2782 378.924 87.8653 378.924C88.3546 378.924 91.5838 381.957 94.813 385.578L100.782 392.232L93.9323 404.758C90.2138 411.705 87.5718 417.576 88.061 417.968C88.5503 418.261 92.3666 421.099 96.5744 424.23L104.207 430.004L107.338 427.166C109.002 425.698 113.503 421.491 117.319 417.87C121.234 414.152 124.952 411.216 125.637 411.216C126.42 411.216 130.236 412.977 134.15 415.13C142.272 419.729 141.881 418.261 139.337 435.679C138.26 442.431 137.771 448.205 138.162 448.498C138.456 448.89 142.468 450.358 147.067 451.825C151.666 453.293 155.874 454.761 156.461 454.957C157.146 455.152 160.473 449.77 164.192 442.823C167.714 435.973 170.846 430.2 171.041 430.004C171.237 429.808 175.347 430.2 180.24 430.787L189.047 432.059L190.123 437.049C190.612 439.789 191.884 446.248 192.863 451.336L194.526 460.632L204.997 460.926C214.293 461.122 215.467 461.024 215.957 459.458C216.25 458.479 217.424 452.217 218.501 445.563C219.675 438.811 220.751 433.037 221.045 432.646C221.241 432.255 224.666 431.472 228.58 430.787C232.396 430.2 236.31 429.417 237.191 429.221C238.463 428.83 240.518 431.961 245.998 442.04C249.912 449.281 253.435 455.25 253.728 455.25C254.022 455.25 258.425 453.782 263.514 451.923C271.048 449.281 272.81 448.205 272.614 446.737C272.418 445.758 271.44 439.104 270.363 431.863C269.287 424.72 268.504 418.653 268.602 418.555C268.798 418.457 272.418 416.5 276.626 414.249C285.629 409.455 283.28 408.574 297.665 421.686C302.558 426.188 306.961 429.808 307.45 429.808C308.429 429.808 322.52 418.261 323.009 417.087C323.107 416.696 321.737 413.662 319.878 410.433C318.019 407.106 314.789 401.235 312.832 397.418L309.212 390.569L315.768 383.915L322.422 377.26L336.219 382.936L350.017 388.514L355.203 380.783C358.041 376.575 360.389 372.759 360.389 372.27C360.389 371.781 355.79 366.79 350.115 361.212C338.568 349.861 338.959 351.133 343.754 340.369L346.788 333.617L357.258 334.302C363.031 334.694 369.783 335.183 372.23 335.575L376.731 336.064L378.884 327.453C380.058 322.658 381.232 318.059 381.428 317.178C381.819 316.102 378.786 314.34 369.001 310.035C361.857 306.903 355.595 303.968 355.105 303.576C354.616 303.087 354.812 298.781 355.497 293.399L356.769 284.005L360.781 282.929C362.934 282.244 369.196 280.58 374.578 279.113L384.364 276.471L384.07 266.783C383.874 261.401 383.385 256.802 383.092 256.41C382.7 256.117 376.046 255.236 368.218 254.453L354.029 253.181L351.778 244.374C350.604 239.482 349.821 235.078 350.017 234.393C350.31 233.806 355.203 229.99 361.074 226.076C366.848 222.162 372.034 218.639 372.523 218.247C373.306 217.758 367.239 201.906 365.38 199.655C365.086 199.264 358.432 200.536 350.702 202.395C342.971 204.254 336.513 205.624 336.415 205.526C334.262 202.591 326.14 189.967 326.14 189.478C326.14 189.185 329.859 183.901 334.458 177.931C339.057 171.864 342.776 166.58 342.776 166.091C342.776 165.602 339.644 161.981 335.828 158.165L328.88 151.119L317.921 158.165C311.952 162.079 306.57 165.504 305.885 165.895C305.102 166.385 295.512 159.926 290.032 155.229C289.836 155.034 291.5 148.869 293.751 141.627C296.099 134.386 297.665 128.026 297.273 127.439C296.588 126.362 281.715 118.632 280.247 118.632C279.758 118.632 275.745 123.427 271.244 129.396C261.948 141.53 263.807 140.942 250.793 136.148L243.454 133.506L243.16 119.708L242.866 106.009L239.735 105.519C230.83 104.051 223.785 103.269 223.296 103.562C222.904 103.758 220.751 109.433 218.403 116.185L214.097 128.417L203.823 128.221L193.548 127.928L189.144 115.99C186.698 109.433 184.447 103.856 184.252 103.66C183.958 103.464 179.261 104.247 173.781 105.226ZM224.568 181.748C266.547 190.457 297.273 220.694 306.178 261.792C308.233 271.382 308.233 291.051 306.08 301.13C298.937 335.085 276.626 362.876 245.998 376.086C231.515 382.251 222.024 384.208 205.78 384.208C189.536 384.208 180.044 382.251 165.562 376.086C119.179 356.124 94.5194 303.968 108.023 254.551C111.057 243.298 119.57 226.956 127.203 217.465C142.174 199.068 165.659 185.173 188.557 181.356C197.071 179.888 216.837 180.182 224.568 181.748Z" fill="url(#paint0_linear_138_51)"/>
<path d="M173.781 105.226L163.8 107.085L163.507 120.882L163.213 134.68L154.211 137.909L145.208 141.04L136.695 130.374L128.181 119.61L124.659 121.665C122.701 122.839 118.689 125.09 115.754 126.754C112.818 128.417 110.274 129.885 110.078 129.983C109.883 130.081 111.546 135.756 113.699 142.606C115.95 149.456 117.711 155.621 117.613 156.208C117.613 156.795 114.384 159.828 110.372 162.862L103.228 168.44L92.2688 161.59C86.2997 157.871 81.0155 154.74 80.6241 154.544C80.1349 154.446 76.71 157.871 72.8936 162.079L66.0438 169.809L74.1657 180.769L82.2876 191.729L77.0035 199.753C72.5022 206.505 71.328 207.581 69.4687 207.19C68.2945 206.896 62.5211 205.624 56.6498 204.254C50.7786 202.884 45.8859 201.906 45.6902 202.101C45.2009 202.493 37.4704 220.596 37.4704 221.085C37.4704 221.281 42.5588 224.804 48.8215 228.816C55.182 233.023 59.9769 236.742 59.6833 237.427C59.3898 238.014 58.5091 242.026 57.5305 246.332C56.552 250.637 55.6713 254.258 55.5734 254.453C55.3777 254.747 32.0884 257.585 29.9356 257.585C28.5657 257.585 27.8807 261.107 27.3914 271.48L27 278.917L32.9691 280.58C36.2962 281.461 42.0696 283.027 45.9837 284.201C53.9099 286.452 53.4206 285.865 54.5949 297.901L55.182 304.457L43.1459 310.524C36.4919 313.851 30.9142 316.689 30.7185 316.884C30.2292 317.374 34.6326 336.26 35.4155 336.945C35.709 337.238 41.9717 336.945 49.2129 336.357C56.4541 335.672 62.7168 335.281 63.0104 335.477C63.3039 335.672 65.1632 339.489 67.2181 343.99L70.8387 352.21L65.1632 357.494C62.1297 360.43 57.3348 364.833 54.6928 367.279L49.8979 371.781L55.6713 380.196C58.8026 384.893 61.934 388.709 62.6189 388.709C63.3039 388.709 68.9795 386.459 75.34 383.817C81.7005 381.077 87.2782 378.924 87.8653 378.924C88.3546 378.924 91.5838 381.957 94.813 385.578L100.782 392.232L93.9323 404.758C90.2138 411.705 87.5718 417.576 88.061 417.968C88.5503 418.261 92.3666 421.099 96.5744 424.23L104.207 430.004L107.338 427.166C109.002 425.698 113.503 421.491 117.319 417.87C121.234 414.152 124.952 411.216 125.637 411.216C126.42 411.216 130.236 412.977 134.15 415.13C142.272 419.729 141.881 418.261 139.337 435.679C138.26 442.431 137.771 448.205 138.162 448.498C138.456 448.89 142.468 450.358 147.067 451.825C151.666 453.293 155.874 454.761 156.461 454.957C157.146 455.152 160.473 449.77 164.192 442.823C167.714 435.973 170.846 430.2 171.041 430.004C171.237 429.808 175.347 430.2 180.24 430.787L189.047 432.059L190.123 437.049C190.612 439.789 191.884 446.248 192.863 451.336L194.526 460.632L204.997 460.926C214.293 461.122 215.467 461.024 215.957 459.458C216.25 458.479 217.424 452.217 218.501 445.563C219.675 438.811 220.751 433.037 221.045 432.646C221.241 432.255 224.666 431.472 228.58 430.787C232.396 430.2 236.31 429.417 237.191 429.221C238.463 428.83 240.518 431.961 245.998 442.04C249.912 449.281 253.435 455.25 253.728 455.25C254.022 455.25 258.425 453.782 263.514 451.923C271.048 449.281 272.81 448.205 272.614 446.737C272.418 445.758 271.44 439.104 270.363 431.863C269.287 424.72 268.504 418.653 268.602 418.555C268.798 418.457 272.418 416.5 276.626 414.249C285.629 409.455 283.28 408.574 297.665 421.686C302.558 426.188 306.961 429.808 307.45 429.808C308.429 429.808 322.52 418.261 323.009 417.087C323.107 416.696 321.737 413.662 319.878 410.433C318.019 407.106 314.789 401.235 312.832 397.418L309.212 390.569L315.768 383.915L322.422 377.26L336.219 382.936L350.017 388.514L355.203 380.783C358.041 376.575 360.389 372.759 360.389 372.27C360.389 371.781 355.79 366.79 350.115 361.212C338.568 349.861 338.959 351.133 343.754 340.369L346.788 333.617L357.258 334.302C363.031 334.694 369.783 335.183 372.23 335.575L376.731 336.064L378.884 327.453C380.058 322.658 381.232 318.059 381.428 317.178C381.819 316.102 378.786 314.34 369.001 310.035C361.857 306.903 355.595 303.968 355.105 303.576C354.616 303.087 354.812 298.781 355.497 293.399L356.769 284.005L360.781 282.929C362.934 282.244 369.196 280.58 374.578 279.113L384.364 276.471L384.07 266.783C383.874 261.401 383.385 256.802 383.092 256.41C382.7 256.117 376.046 255.236 368.218 254.453L354.029 253.181L351.778 244.374C350.604 239.482 349.821 235.078 350.017 234.393C350.31 233.806 355.203 229.99 361.074 226.076C366.848 222.162 372.034 218.639 372.523 218.247C373.306 217.758 367.239 201.906 365.38 199.655C365.086 199.264 358.432 200.536 350.702 202.395C342.971 204.254 336.513 205.624 336.415 205.526C334.262 202.591 326.14 189.967 326.14 189.478C326.14 189.185 329.859 183.901 334.458 177.931C339.057 171.864 342.776 166.58 342.776 166.091C342.776 165.602 339.644 161.981 335.828 158.165L328.88 151.119L317.921 158.165C311.952 162.079 306.57 165.504 305.885 165.895C305.102 166.385 295.512 159.926 290.032 155.229C289.836 155.034 291.5 148.869 293.751 141.627C296.099 134.386 297.665 128.026 297.273 127.439C296.588 126.362 281.715 118.632 280.247 118.632C279.758 118.632 275.745 123.427 271.244 129.396C261.948 141.53 263.807 140.942 250.793 136.148L243.454 133.506L243.16 119.708L242.866 106.009L239.735 105.519C230.83 104.051 223.785 103.269 223.296 103.562C222.904 103.758 220.751 109.433 218.403 116.185L214.097 128.417L203.823 128.221L193.548 127.928L189.144 115.99C186.698 109.433 184.447 103.856 184.252 103.66C183.958 103.464 179.261 104.247 173.781 105.226ZM224.568 181.748C266.547 190.457 297.273 220.694 306.178 261.792C308.233 271.382 308.233 291.051 306.08 301.13C298.937 335.085 276.626 362.876 245.998 376.086C231.515 382.251 222.024 384.208 205.78 384.208C189.536 384.208 180.044 382.251 165.562 376.086C119.179 356.124 94.5194 303.968 108.023 254.551C111.057 243.298 119.57 226.956 127.203 217.465C142.174 199.068 165.659 185.173 188.557 181.356C197.071 179.888 216.837 180.182 224.568 181.748Z" stroke="white" stroke-width="11.4435" mask="url(#path-1-outside-1_138_51)"/>
<path d="M191.591 193.489C165.464 197.697 141.196 214.724 128.084 238.307C120.451 252.006 115.95 272.262 117.124 287.429C120.256 326.865 146.089 358.08 183.959 368.355C195.016 371.291 216.74 371.291 227.797 368.355C236.507 365.909 249.423 360.037 256.273 355.438C283.379 336.748 299.035 302.89 294.925 271.577C292.088 250.049 283.672 233.414 267.918 217.953C258.23 208.461 247.27 201.709 234.452 197.306C219.088 192.119 206.759 191.043 191.591 193.489ZM219.773 244.863C246.781 255.04 253.729 292.322 232.103 311.795C208.814 332.736 171.336 320.015 165.66 289.093C162.137 269.424 176.13 247.896 195.701 242.906C201.475 241.536 213.413 242.416 219.773 244.863Z" fill="#667DE8"/>
<mask id="path-3-outside-2_138_51" maskUnits="userSpaceOnUse" x="243.869" y="-21.6274" width="373.583" height="373.583" fill="black">
<rect fill="white" x="243.869" y="-21.6274" width="373.583" height="373.583"/>
<path d="M558.188 124.808C551.673 125.105 543.667 125.649 535.2 126.328L525.861 127.084L524.29 123.552C521.316 116.865 515.418 107.282 511.065 102.11C509.582 100.342 508.387 98.8274 508.419 98.7436C508.464 98.6888 509.437 97.0425 510.595 95.1061C514.603 88.4688 526.208 68.3968 526.144 68.2521C526.015 67.9626 521.838 63.891 520.767 63.0493C520.164 62.5546 518.769 61.3723 517.66 60.4438C516.58 59.5024 514.342 57.7581 512.675 56.5923C511.037 55.4136 508.242 53.4321 506.466 52.1763C503.312 49.9378 498.424 47.084 494.944 45.4415L493.161 44.6397L487.181 51.4603C483.889 55.2477 478.72 61.1529 475.699 64.6116L470.214 70.9003L466.998 69.6952C458.664 66.6055 446.577 63.7632 440.782 63.5664C439.646 63.5167 438.714 63.3766 438.649 63.2319C438.598 63.1161 437.467 58.6952 436.162 53.4151C433.612 43.1413 429.958 29.3705 429.761 29.3193C429.426 29.1911 421.23 29.5421 417.702 29.8278C412.804 30.2379 399.752 33.13 391.109 35.7607L389.579 36.2331L390.454 53.459L391.329 70.685L388.595 71.9704C383.678 74.2959 377.822 77.5595 374.954 79.563C373.411 80.6309 371.205 82.1666 370.088 82.9409C368.942 83.7281 367.053 85.1925 365.854 86.1761C364.669 87.1887 363.503 88.0887 363.271 88.192C363.068 88.2825 359.749 86.5335 355.928 84.28C352.094 81.9975 345.39 78.1134 341.011 75.6225C333.917 71.5652 332.998 71.1418 332.481 71.545C330.208 73.319 321.781 83.7937 317.412 90.2448C314.994 93.886 310.695 100.965 309.829 102.772L309.227 104.08L313.834 108.099C318.402 112.032 333.159 125.025 334.687 126.426L335.48 127.114L333.587 132.637C331.172 139.571 330.423 142.817 329.304 151.255C328.64 156.336 328.277 158.023 327.845 158.146C327.541 158.246 323.436 159.344 318.727 160.572C310.432 162.735 295.501 166.879 294.775 167.202C294.572 167.292 294.445 167.869 294.444 168.493C294.727 176.17 295.513 182.79 297.259 192.035C298.407 198.216 300.618 206.942 301.066 207.09C301.879 207.352 323.573 206.13 332.627 205.362L336.4 205.002L338.357 209.402C341.73 216.987 344.867 222.007 350.488 228.696C353.046 231.789 353.471 232.432 353.293 232.892C353.151 233.198 349.104 240.061 344.288 248.167C339.471 256.274 335.489 262.969 335.485 263.04C335.408 263.178 337.732 265.196 345.073 271.294C348.113 273.825 351.978 276.648 355.238 278.736C359.894 281.693 366.269 285.307 368.308 286.134C369.004 286.448 369.227 286.245 374.267 280.675C377.132 277.494 382.388 271.55 385.948 267.504L392.38 260.136L397.548 261.895C404.547 264.33 412.166 265.969 418.8 266.486C420.516 266.59 422.029 266.784 422.139 266.874C422.248 266.963 423.042 269.766 423.897 273.096C428.363 290.493 431.053 300.532 431.311 300.799C431.856 301.319 446.764 300.098 452.373 299.094C453.522 298.861 454.81 298.704 455.223 298.694C455.949 298.683 467.261 295.871 470.105 294.988L471.548 294.554L471.54 292.893C471.555 290.737 470.763 276.594 470.128 267.029L469.604 259.356L474.137 257.34C479.337 255.027 482.172 253.419 486.625 250.364C489.269 248.564 494.885 244.367 496.425 243.058C496.723 242.787 498.474 243.673 503.32 246.51C510.617 250.789 527.115 260.027 527.625 260.078C528.034 260.138 531.807 256.102 535.487 251.622C540.763 245.253 545.66 237.874 549.407 230.729L551.234 227.246L547.836 224.145C543.114 219.865 535.351 213.054 529.781 208.354L525.113 204.431L527.077 198.91C529.142 193.068 530.821 186.357 531.316 182.15C531.56 179.96 532.33 175.353 532.618 174.358C532.683 174.19 536.333 173.087 540.771 171.876C562.958 165.892 566.747 164.866 566.795 164.74C566.799 164.669 566.698 162.252 566.562 159.365C566.279 153.25 565.58 145.966 565.168 145.04C565.013 144.693 564.824 143.563 564.715 142.536C564.499 139.859 561.628 126.988 560.91 125.296C560.704 124.833 560.111 124.75 558.188 124.808ZM479.65 153.462C481.78 162.085 481.566 172.167 479.043 180.501C476.051 190.362 467.563 201.558 458.518 207.592C455.112 209.87 448.694 212.655 444.289 213.782C436.314 215.803 427.053 216.107 420.34 214.551C408.446 211.83 396.294 203.365 389.339 192.969C387.319 189.915 384.487 183.546 383.494 179.826C381.633 172.748 381.013 164.077 381.946 158.114C384.044 144.837 392.121 132.09 403.472 124.198C406.852 121.863 413.564 118.878 417.853 117.802C433.8 113.83 447.133 116.188 460.366 125.283C463.867 127.678 468.264 131.93 470.986 135.469C474.808 140.462 478.178 147.493 479.65 153.462Z"/>
</mask>
<path d="M558.188 124.808C551.673 125.105 543.667 125.649 535.2 126.328L525.861 127.084L524.29 123.552C521.316 116.865 515.418 107.282 511.065 102.11C509.582 100.342 508.387 98.8274 508.419 98.7436C508.464 98.6888 509.437 97.0425 510.595 95.1061C514.603 88.4688 526.208 68.3968 526.144 68.2521C526.015 67.9626 521.838 63.891 520.767 63.0493C520.164 62.5546 518.769 61.3723 517.66 60.4438C516.58 59.5024 514.342 57.7581 512.675 56.5923C511.037 55.4136 508.242 53.4321 506.466 52.1763C503.312 49.9378 498.424 47.084 494.944 45.4415L493.161 44.6397L487.181 51.4603C483.889 55.2477 478.72 61.1529 475.699 64.6116L470.214 70.9003L466.998 69.6952C458.664 66.6055 446.577 63.7632 440.782 63.5664C439.646 63.5167 438.714 63.3766 438.649 63.2319C438.598 63.1161 437.467 58.6952 436.162 53.4151C433.612 43.1413 429.958 29.3705 429.761 29.3193C429.426 29.1911 421.23 29.5421 417.702 29.8278C412.804 30.2379 399.752 33.13 391.109 35.7607L389.579 36.2331L390.454 53.459L391.329 70.685L388.595 71.9704C383.678 74.2959 377.822 77.5595 374.954 79.563C373.411 80.6309 371.205 82.1666 370.088 82.9409C368.942 83.7281 367.053 85.1925 365.854 86.1761C364.669 87.1887 363.503 88.0887 363.271 88.192C363.068 88.2825 359.749 86.5335 355.928 84.28C352.094 81.9975 345.39 78.1134 341.011 75.6225C333.917 71.5652 332.998 71.1418 332.481 71.545C330.208 73.319 321.781 83.7937 317.412 90.2448C314.994 93.886 310.695 100.965 309.829 102.772L309.227 104.08L313.834 108.099C318.402 112.032 333.159 125.025 334.687 126.426L335.48 127.114L333.587 132.637C331.172 139.571 330.423 142.817 329.304 151.255C328.64 156.336 328.277 158.023 327.845 158.146C327.541 158.246 323.436 159.344 318.727 160.572C310.432 162.735 295.501 166.879 294.775 167.202C294.572 167.292 294.445 167.869 294.444 168.493C294.727 176.17 295.513 182.79 297.259 192.035C298.407 198.216 300.618 206.942 301.066 207.09C301.879 207.352 323.573 206.13 332.627 205.362L336.4 205.002L338.357 209.402C341.73 216.987 344.867 222.007 350.488 228.696C353.046 231.789 353.471 232.432 353.293 232.892C353.151 233.198 349.104 240.061 344.288 248.167C339.471 256.274 335.489 262.969 335.485 263.04C335.408 263.178 337.732 265.196 345.073 271.294C348.113 273.825 351.978 276.648 355.238 278.736C359.894 281.693 366.269 285.307 368.308 286.134C369.004 286.448 369.227 286.245 374.267 280.675C377.132 277.494 382.388 271.55 385.948 267.504L392.38 260.136L397.548 261.895C404.547 264.33 412.166 265.969 418.8 266.486C420.516 266.59 422.029 266.784 422.139 266.874C422.248 266.963 423.042 269.766 423.897 273.096C428.363 290.493 431.053 300.532 431.311 300.799C431.856 301.319 446.764 300.098 452.373 299.094C453.522 298.861 454.81 298.704 455.223 298.694C455.949 298.683 467.261 295.871 470.105 294.988L471.548 294.554L471.54 292.893C471.555 290.737 470.763 276.594 470.128 267.029L469.604 259.356L474.137 257.34C479.337 255.027 482.172 253.419 486.625 250.364C489.269 248.564 494.885 244.367 496.425 243.058C496.723 242.787 498.474 243.673 503.32 246.51C510.617 250.789 527.115 260.027 527.625 260.078C528.034 260.138 531.807 256.102 535.487 251.622C540.763 245.253 545.66 237.874 549.407 230.729L551.234 227.246L547.836 224.145C543.114 219.865 535.351 213.054 529.781 208.354L525.113 204.431L527.077 198.91C529.142 193.068 530.821 186.357 531.316 182.15C531.56 179.96 532.33 175.353 532.618 174.358C532.683 174.19 536.333 173.087 540.771 171.876C562.958 165.892 566.747 164.866 566.795 164.74C566.799 164.669 566.698 162.252 566.562 159.365C566.279 153.25 565.58 145.966 565.168 145.04C565.013 144.693 564.824 143.563 564.715 142.536C564.499 139.859 561.628 126.988 560.91 125.296C560.704 124.833 560.111 124.75 558.188 124.808ZM479.65 153.462C481.78 162.085 481.566 172.167 479.043 180.501C476.051 190.362 467.563 201.558 458.518 207.592C455.112 209.87 448.694 212.655 444.289 213.782C436.314 215.803 427.053 216.107 420.34 214.551C408.446 211.83 396.294 203.365 389.339 192.969C387.319 189.915 384.487 183.546 383.494 179.826C381.633 172.748 381.013 164.077 381.946 158.114C384.044 144.837 392.121 132.09 403.472 124.198C406.852 121.863 413.564 118.878 417.853 117.802C433.8 113.83 447.133 116.188 460.366 125.283C463.867 127.678 468.264 131.93 470.986 135.469C474.808 140.462 478.178 147.493 479.65 153.462Z" fill="url(#paint1_linear_138_51)"/>
<path d="M558.188 124.808C551.673 125.105 543.667 125.649 535.2 126.328L525.861 127.084L524.29 123.552C521.316 116.865 515.418 107.282 511.065 102.11C509.582 100.342 508.387 98.8274 508.419 98.7436C508.464 98.6888 509.437 97.0425 510.595 95.1061C514.603 88.4688 526.208 68.3968 526.144 68.2521C526.015 67.9626 521.838 63.891 520.767 63.0493C520.164 62.5546 518.769 61.3723 517.66 60.4438C516.58 59.5024 514.342 57.7581 512.675 56.5923C511.037 55.4136 508.242 53.4321 506.466 52.1763C503.312 49.9378 498.424 47.084 494.944 45.4415L493.161 44.6397L487.181 51.4603C483.889 55.2477 478.72 61.1529 475.699 64.6116L470.214 70.9003L466.998 69.6952C458.664 66.6055 446.577 63.7632 440.782 63.5664C439.646 63.5167 438.714 63.3766 438.649 63.2319C438.598 63.1161 437.467 58.6952 436.162 53.4151C433.612 43.1413 429.958 29.3705 429.761 29.3193C429.426 29.1911 421.23 29.5421 417.702 29.8278C412.804 30.2379 399.752 33.13 391.109 35.7607L389.579 36.2331L390.454 53.459L391.329 70.685L388.595 71.9704C383.678 74.2959 377.822 77.5595 374.954 79.563C373.411 80.6309 371.205 82.1666 370.088 82.9409C368.942 83.7281 367.053 85.1925 365.854 86.1761C364.669 87.1887 363.503 88.0887 363.271 88.192C363.068 88.2825 359.749 86.5335 355.928 84.28C352.094 81.9975 345.39 78.1134 341.011 75.6225C333.917 71.5652 332.998 71.1418 332.481 71.545C330.208 73.319 321.781 83.7937 317.412 90.2448C314.994 93.886 310.695 100.965 309.829 102.772L309.227 104.08L313.834 108.099C318.402 112.032 333.159 125.025 334.687 126.426L335.48 127.114L333.587 132.637C331.172 139.571 330.423 142.817 329.304 151.255C328.64 156.336 328.277 158.023 327.845 158.146C327.541 158.246 323.436 159.344 318.727 160.572C310.432 162.735 295.501 166.879 294.775 167.202C294.572 167.292 294.445 167.869 294.444 168.493C294.727 176.17 295.513 182.79 297.259 192.035C298.407 198.216 300.618 206.942 301.066 207.09C301.879 207.352 323.573 206.13 332.627 205.362L336.4 205.002L338.357 209.402C341.73 216.987 344.867 222.007 350.488 228.696C353.046 231.789 353.471 232.432 353.293 232.892C353.151 233.198 349.104 240.061 344.288 248.167C339.471 256.274 335.489 262.969 335.485 263.04C335.408 263.178 337.732 265.196 345.073 271.294C348.113 273.825 351.978 276.648 355.238 278.736C359.894 281.693 366.269 285.307 368.308 286.134C369.004 286.448 369.227 286.245 374.267 280.675C377.132 277.494 382.388 271.55 385.948 267.504L392.38 260.136L397.548 261.895C404.547 264.33 412.166 265.969 418.8 266.486C420.516 266.59 422.029 266.784 422.139 266.874C422.248 266.963 423.042 269.766 423.897 273.096C428.363 290.493 431.053 300.532 431.311 300.799C431.856 301.319 446.764 300.098 452.373 299.094C453.522 298.861 454.81 298.704 455.223 298.694C455.949 298.683 467.261 295.871 470.105 294.988L471.548 294.554L471.54 292.893C471.555 290.737 470.763 276.594 470.128 267.029L469.604 259.356L474.137 257.34C479.337 255.027 482.172 253.419 486.625 250.364C489.269 248.564 494.885 244.367 496.425 243.058C496.723 242.787 498.474 243.673 503.32 246.51C510.617 250.789 527.115 260.027 527.625 260.078C528.034 260.138 531.807 256.102 535.487 251.622C540.763 245.253 545.66 237.874 549.407 230.729L551.234 227.246L547.836 224.145C543.114 219.865 535.351 213.054 529.781 208.354L525.113 204.431L527.077 198.91C529.142 193.068 530.821 186.357 531.316 182.15C531.56 179.96 532.33 175.353 532.618 174.358C532.683 174.19 536.333 173.087 540.771 171.876C562.958 165.892 566.747 164.866 566.795 164.74C566.799 164.669 566.698 162.252 566.562 159.365C566.279 153.25 565.58 145.966 565.168 145.04C565.013 144.693 564.824 143.563 564.715 142.536C564.499 139.859 561.628 126.988 560.91 125.296C560.704 124.833 560.111 124.75 558.188 124.808ZM479.65 153.462C481.78 162.085 481.566 172.167 479.043 180.501C476.051 190.362 467.563 201.558 458.518 207.592C455.112 209.87 448.694 212.655 444.289 213.782C436.314 215.803 427.053 216.107 420.34 214.551C408.446 211.83 396.294 203.365 389.339 192.969C387.319 189.915 384.487 183.546 383.494 179.826C381.633 172.748 381.013 164.077 381.946 158.114C384.044 144.837 392.121 132.09 403.472 124.198C406.852 121.863 413.564 118.878 417.853 117.802C433.8 113.83 447.133 116.188 460.366 125.283C463.867 127.678 468.264 131.93 470.986 135.469C474.808 140.462 478.178 147.493 479.65 153.462Z" stroke="white" stroke-width="11.4435" mask="url(#path-3-outside-2_138_51)"/>
<path d="M424.447 124.96C412.173 126.94 400.772 134.953 394.612 146.051C391.027 152.499 388.912 162.031 389.464 169.169C390.935 187.728 403.071 202.418 420.861 207.254C426.056 208.635 436.261 208.635 441.455 207.254C445.547 206.103 451.614 203.339 454.832 201.175C467.566 192.379 474.921 176.445 472.99 161.709C471.657 151.578 467.704 143.749 460.303 136.473C455.752 132.006 450.603 128.828 444.581 126.756C437.364 124.315 431.572 123.808 424.447 124.96ZM437.686 149.137C450.373 153.926 453.637 171.472 443.478 180.636C432.537 190.491 414.931 184.504 412.265 169.952C410.61 160.696 417.183 150.564 426.377 148.216C429.09 147.571 434.698 147.985 437.686 149.137Z" fill="#764BA2"/>
<path d="M645.8 229V123.4H754.6L770.6 139.4V229H748.2V136.2H719.4V229H697V136.2H668.2V229H645.8ZM792.95 229V149H856.95V195.4H812.15V216.2H856.95V229H792.95ZM840.95 161.8H812.15V182.6H840.95V161.8ZM879.356 229V107.4H898.556V229H879.356ZM920.919 229V107.4H940.119V149H984.919V229H920.919ZM940.119 216.2H965.719V161.8H940.119V216.2ZM1007.33 229V149H1071.33V229H1007.33ZM1026.53 216.2H1052.13V161.8H1026.53V216.2ZM1093.73 229V149H1112.93V216.2H1135.33V149H1154.53V229H1093.73ZM1176.86 229V149H1221.66V161.8H1196.06V229H1176.86ZM1237.64 229V149H1298.44V229H1279.24V161.8H1256.84V229H1237.64ZM1320.76 229V149H1384.76V195.4H1339.96V216.2H1384.76V229H1320.76ZM1368.76 161.8H1339.96V182.6H1368.76V161.8ZM1440.77 136.2V123.4H1504.77V136.2H1483.97V229H1461.57V136.2H1440.77ZM1520.76 229V149H1584.76V195.4H1539.96V216.2H1584.76V229H1520.76ZM1568.76 161.8H1539.96V182.6H1568.76V161.8ZM1607.17 229V149H1661.57V161.8H1626.37V216.2H1661.57V229H1607.17ZM1680.76 229V107.4H1699.96V149H1744.76V229H1725.56V161.8H1699.96V229H1680.76ZM1808.77 229V123.4H1877.57V136.2H1831.17V216.2H1858.37V177.8H1877.57V261H1821.57V248.2H1858.37V229H1808.77ZM1896.7 229V149H1915.9V216.2H1938.3V149H1957.5V229H1896.7ZM1979.83 136.2V117H1999.03V136.2H1979.83ZM1979.83 229V149H1999.03V229H1979.83ZM2021.39 229V107.4H2040.59V229H2021.39ZM2107.75 216.2V161.8H2082.15V216.2H2107.75ZM2126.95 229H2062.95V149H2107.75V107.4H2126.95V229ZM2149.36 197V149H2203.76V161.8H2168.56V181H2203.76V229H2146.16V216.2H2184.56V197H2149.36Z" fill="url(#paint2_linear_138_51)"/>
<path d="M641.6 351L632.4 298.2H642.8L650.16 344.6H652.16L659.6 317.8L655.6 298.2H666L674.8 344.6H676.24L683.6 298.2H692.4L683.2 351H666.4L663.04 334.44L658.4 351H641.6ZM700.366 351V290.2H709.966V311H732.366V351H722.766V317.4H709.966V351H700.366ZM743.569 351V311H775.569V334.2H753.169V344.6H775.569V351H743.569ZM767.569 317.4H753.169V327.8H767.569V317.4ZM786.772 351V311H809.172V317.4H796.372V351H786.772ZM817.163 351V311H849.163V334.2H826.763V344.6H849.163V351H817.163ZM841.163 317.4H826.763V327.8H841.163V317.4ZM881.166 351V298.2H935.566L943.566 306.2V351H932.366V304.6H917.966V351H906.766V304.6H892.366V351H881.166ZM954.741 351V327.8H978.741V317.4H957.941V311H988.341V351H978.741V334.2H964.341V344.6H975.541V351H954.741ZM999.506 351V290.2H1009.11V325.4H1014.71L1021.91 311H1030.71L1022.87 325.4H1029.91V351H1020.31V331.8H1009.11V351H999.506ZM1041.07 351V311H1073.07V334.2H1050.67V344.6H1073.07V351H1041.07ZM1065.07 317.4H1050.67V327.8H1065.07V317.4ZM1084.27 351V311H1106.67V317.4H1093.87V351H1084.27ZM1114.66 335V311H1141.86V317.4H1124.26V327H1141.86V351H1113.06V344.6H1132.26V335H1114.66ZM1173.9 351V298.2H1203.5V304.6H1185.1V344.6H1203.5V351H1173.9ZM1213.1 351V311H1245.1V351H1213.1ZM1222.7 344.6H1235.5V317.4H1222.7V344.6ZM1256.3 351V290.2H1265.9V351H1256.3ZM1277.08 351V290.2H1286.68V351H1277.08ZM1297.87 351V327.8H1321.87V317.4H1301.07V311H1331.47V351H1321.87V334.2H1307.47V344.6H1318.67V351H1297.87ZM1342.63 351V290.2H1352.23V311H1374.63V351H1342.63ZM1352.23 344.6H1365.03V317.4H1352.23V344.6ZM1385.83 351V311H1417.83V351H1385.83ZM1395.43 344.6H1408.23V317.4H1395.43V344.6ZM1429.04 351V311H1451.44V317.4H1438.64V351H1429.04ZM1459.43 351V327.8H1483.43V317.4H1462.63V311H1493.03V351H1483.43V334.2H1469.03V344.6H1480.23V351H1459.43ZM1500.99 317.4V311H1507.39V296.6H1516.99V311H1523.39V317.4H1516.99V351H1507.39V317.4H1500.99ZM1531.38 351V311H1563.38V334.2H1540.98V344.6H1563.38V351H1531.38ZM1555.38 317.4H1540.98V327.8H1555.38V317.4Z" fill="#666666"/>
<path d="M636.691 431V401.961H641.094V406.035C642.005 404.613 643.217 403.474 644.73 402.617C646.243 401.742 647.966 401.305 649.898 401.305C652.049 401.305 653.809 401.751 655.176 402.645C656.561 403.538 657.536 404.786 658.102 406.391C660.398 403 663.388 401.305 667.07 401.305C669.951 401.305 672.165 402.107 673.715 403.711C675.264 405.297 676.039 407.749 676.039 411.066V431H671.145V412.707C671.145 410.738 670.98 409.326 670.652 408.469C670.342 407.594 669.768 406.892 668.93 406.363C668.091 405.835 667.107 405.57 665.977 405.57C663.935 405.57 662.24 406.254 660.891 407.621C659.542 408.97 658.867 411.139 658.867 414.129V431H653.945V412.133C653.945 409.945 653.544 408.305 652.742 407.211C651.94 406.117 650.628 405.57 648.805 405.57C647.419 405.57 646.134 405.935 644.949 406.664C643.783 407.393 642.935 408.46 642.406 409.863C641.878 411.267 641.613 413.29 641.613 415.934V431H636.691ZM703.219 421.648L708.305 422.277C707.503 425.249 706.017 427.555 703.848 429.195C701.678 430.836 698.908 431.656 695.535 431.656C691.288 431.656 687.915 430.353 685.418 427.746C682.939 425.121 681.699 421.448 681.699 416.727C681.699 411.841 682.957 408.049 685.473 405.352C687.988 402.654 691.251 401.305 695.262 401.305C699.145 401.305 702.316 402.626 704.777 405.27C707.238 407.913 708.469 411.632 708.469 416.426C708.469 416.717 708.46 417.155 708.441 417.738H686.785C686.967 420.928 687.87 423.371 689.492 425.066C691.115 426.762 693.138 427.609 695.562 427.609C697.367 427.609 698.908 427.135 700.184 426.188C701.46 425.24 702.471 423.727 703.219 421.648ZM687.059 413.691H703.273C703.055 411.249 702.435 409.417 701.414 408.195C699.846 406.299 697.814 405.352 695.316 405.352C693.056 405.352 691.151 406.108 689.602 407.621C688.07 409.134 687.223 411.158 687.059 413.691ZM714.402 431V390.914H719.324V431H714.402ZM731.52 431H726.953V390.914H731.875V405.215C733.953 402.608 736.605 401.305 739.832 401.305C741.618 401.305 743.305 401.669 744.891 402.398C746.495 403.109 747.807 404.121 748.828 405.434C749.867 406.728 750.678 408.296 751.262 410.137C751.845 411.978 752.137 413.947 752.137 416.043C752.137 421.02 750.906 424.866 748.445 427.582C745.984 430.298 743.031 431.656 739.586 431.656C736.159 431.656 733.47 430.225 731.52 427.363V431ZM731.465 416.262C731.465 419.743 731.939 422.259 732.887 423.809C734.436 426.342 736.533 427.609 739.176 427.609C741.327 427.609 743.186 426.68 744.754 424.82C746.322 422.943 747.105 420.154 747.105 416.453C747.105 412.661 746.349 409.863 744.836 408.059C743.341 406.254 741.527 405.352 739.395 405.352C737.243 405.352 735.384 406.29 733.816 408.168C732.249 410.027 731.465 412.725 731.465 416.262ZM756.32 416.48C756.32 411.103 757.815 407.12 760.805 404.531C763.302 402.38 766.346 401.305 769.938 401.305C773.93 401.305 777.193 402.617 779.727 405.242C782.26 407.849 783.527 411.458 783.527 416.07C783.527 419.807 782.962 422.751 781.832 424.902C780.72 427.035 779.089 428.694 776.938 429.879C774.805 431.064 772.471 431.656 769.938 431.656C765.872 431.656 762.582 430.353 760.066 427.746C757.569 425.139 756.32 421.384 756.32 416.48ZM761.379 416.48C761.379 420.199 762.19 422.988 763.812 424.848C765.435 426.689 767.477 427.609 769.938 427.609C772.38 427.609 774.413 426.68 776.035 424.82C777.658 422.961 778.469 420.126 778.469 416.316C778.469 412.725 777.648 410.009 776.008 408.168C774.385 406.309 772.362 405.379 769.938 405.379C767.477 405.379 765.435 406.299 763.812 408.141C762.19 409.982 761.379 412.762 761.379 416.48ZM808.355 431V426.734C806.095 430.016 803.023 431.656 799.141 431.656C797.427 431.656 795.823 431.328 794.328 430.672C792.852 430.016 791.749 429.195 791.02 428.211C790.309 427.208 789.807 425.987 789.516 424.547C789.315 423.581 789.215 422.049 789.215 419.953V401.961H794.137V418.066C794.137 420.637 794.237 422.368 794.438 423.262C794.747 424.556 795.404 425.577 796.406 426.324C797.409 427.053 798.648 427.418 800.125 427.418C801.602 427.418 802.987 427.044 804.281 426.297C805.576 425.531 806.487 424.501 807.016 423.207C807.562 421.895 807.836 419.999 807.836 417.52V401.961H812.758V431H808.355ZM820.441 431V401.961H824.871V406.363C826.001 404.303 827.04 402.945 827.988 402.289C828.954 401.633 830.012 401.305 831.16 401.305C832.819 401.305 834.505 401.833 836.219 402.891L834.523 407.457C833.32 406.746 832.117 406.391 830.914 406.391C829.839 406.391 828.872 406.719 828.016 407.375C827.159 408.013 826.548 408.906 826.184 410.055C825.637 411.805 825.363 413.719 825.363 415.797V431H820.441ZM839.145 431V401.961H843.574V406.09C845.707 402.9 848.788 401.305 852.816 401.305C854.566 401.305 856.171 401.624 857.629 402.262C859.105 402.882 860.208 403.702 860.938 404.723C861.667 405.743 862.177 406.956 862.469 408.359C862.651 409.271 862.742 410.866 862.742 413.145V431H857.82V413.336C857.82 411.331 857.629 409.836 857.246 408.852C856.863 407.849 856.18 407.056 855.195 406.473C854.229 405.871 853.09 405.57 851.777 405.57C849.681 405.57 847.867 406.236 846.336 407.566C844.823 408.897 844.066 411.422 844.066 415.141V431H839.145ZM890.195 421.648L895.281 422.277C894.479 425.249 892.993 427.555 890.824 429.195C888.655 430.836 885.884 431.656 882.512 431.656C878.264 431.656 874.892 430.353 872.395 427.746C869.915 425.121 868.676 421.448 868.676 416.727C868.676 411.841 869.934 408.049 872.449 405.352C874.965 402.654 878.228 401.305 882.238 401.305C886.121 401.305 889.293 402.626 891.754 405.27C894.215 407.913 895.445 411.632 895.445 416.426C895.445 416.717 895.436 417.155 895.418 417.738H873.762C873.944 420.928 874.846 423.371 876.469 425.066C878.091 426.762 880.115 427.609 882.539 427.609C884.344 427.609 885.884 427.135 887.16 426.188C888.436 425.24 889.448 423.727 890.195 421.648ZM874.035 413.691H890.25C890.031 411.249 889.411 409.417 888.391 408.195C886.823 406.299 884.79 405.352 882.293 405.352C880.033 405.352 878.128 406.108 876.578 407.621C875.047 409.134 874.199 411.158 874.035 413.691ZM902.883 431V425.395H908.488V431H902.883ZM927.82 426.598L928.531 430.945C927.146 431.237 925.906 431.383 924.812 431.383C923.026 431.383 921.641 431.1 920.656 430.535C919.672 429.97 918.979 429.232 918.578 428.32C918.177 427.391 917.977 425.449 917.977 422.496V405.789H914.367V401.961H917.977V394.77L922.871 391.816V401.961H927.82V405.789H922.871V422.77C922.871 424.173 922.953 425.076 923.117 425.477C923.299 425.878 923.582 426.197 923.965 426.434C924.366 426.671 924.931 426.789 925.66 426.789C926.207 426.789 926.927 426.725 927.82 426.598ZM952.539 421.648L957.625 422.277C956.823 425.249 955.337 427.555 953.168 429.195C950.999 430.836 948.228 431.656 944.855 431.656C940.608 431.656 937.236 430.353 934.738 427.746C932.259 425.121 931.02 421.448 931.02 416.727C931.02 411.841 932.277 408.049 934.793 405.352C937.309 402.654 940.572 401.305 944.582 401.305C948.465 401.305 951.637 402.626 954.098 405.27C956.559 407.913 957.789 411.632 957.789 416.426C957.789 416.717 957.78 417.155 957.762 417.738H936.105C936.288 420.928 937.19 423.371 938.812 425.066C940.435 426.762 942.458 427.609 944.883 427.609C946.688 427.609 948.228 427.135 949.504 426.188C950.78 425.24 951.792 423.727 952.539 421.648ZM936.379 413.691H952.594C952.375 411.249 951.755 409.417 950.734 408.195C949.167 406.299 947.134 405.352 944.637 405.352C942.376 405.352 940.471 406.108 938.922 407.621C937.391 409.134 936.543 411.158 936.379 413.691ZM982.781 420.363L987.621 420.992C987.092 424.328 985.734 426.944 983.547 428.84C981.378 430.717 978.707 431.656 975.535 431.656C971.561 431.656 968.362 430.362 965.938 427.773C963.531 425.167 962.328 421.439 962.328 416.59C962.328 413.454 962.848 410.711 963.887 408.359C964.926 406.008 966.503 404.249 968.617 403.082C970.75 401.897 973.065 401.305 975.562 401.305C978.716 401.305 981.296 402.107 983.301 403.711C985.306 405.297 986.591 407.557 987.156 410.492L982.371 411.23C981.915 409.28 981.104 407.812 979.938 406.828C978.789 405.844 977.395 405.352 975.754 405.352C973.275 405.352 971.26 406.245 969.711 408.031C968.161 409.799 967.387 412.607 967.387 416.453C967.387 420.354 968.134 423.189 969.629 424.957C971.124 426.725 973.074 427.609 975.48 427.609C977.413 427.609 979.026 427.017 980.32 425.832C981.615 424.647 982.435 422.824 982.781 420.363ZM991.832 431V390.914H996.754V405.297C999.051 402.635 1001.95 401.305 1005.45 401.305C1007.6 401.305 1009.47 401.733 1011.05 402.59C1012.64 403.428 1013.77 404.595 1014.45 406.09C1015.14 407.585 1015.48 409.754 1015.48 412.598V431H1010.56V412.598C1010.56 410.137 1010.02 408.35 1008.95 407.238C1007.89 406.108 1006.39 405.543 1004.44 405.543C1002.98 405.543 1001.6 405.926 1000.31 406.691C999.033 407.439 998.121 408.46 997.574 409.754C997.027 411.048 996.754 412.835 996.754 415.113V431H991.832ZM1022.1 433.406L1026.89 434.117C1027.09 435.594 1027.64 436.669 1028.55 437.344C1029.78 438.255 1031.44 438.711 1033.56 438.711C1035.84 438.711 1037.6 438.255 1038.84 437.344C1040.08 436.432 1040.91 435.156 1041.35 433.516C1041.61 432.513 1041.73 430.408 1041.71 427.199C1039.56 429.733 1036.88 431 1033.67 431C1029.68 431 1026.59 429.56 1024.4 426.68C1022.21 423.799 1021.12 420.345 1021.12 416.316C1021.12 413.546 1021.62 410.993 1022.62 408.66C1023.62 406.309 1025.07 404.495 1026.97 403.219C1028.88 401.943 1031.12 401.305 1033.7 401.305C1037.12 401.305 1039.95 402.69 1042.17 405.461V401.961H1046.71V427.062C1046.71 431.583 1046.25 434.783 1045.32 436.66C1044.4 438.556 1042.95 440.051 1040.94 441.145C1038.95 442.238 1036.5 442.785 1033.59 442.785C1030.12 442.785 1027.32 442.001 1025.19 440.434C1023.06 438.884 1022.03 436.542 1022.1 433.406ZM1026.18 415.961C1026.18 419.771 1026.93 422.551 1028.45 424.301C1029.96 426.051 1031.85 426.926 1034.13 426.926C1036.39 426.926 1038.29 426.06 1039.82 424.328C1041.35 422.578 1042.12 419.844 1042.12 416.125C1042.12 412.57 1041.32 409.891 1039.74 408.086C1038.17 406.281 1036.27 405.379 1034.05 405.379C1031.86 405.379 1030 406.272 1028.47 408.059C1026.94 409.827 1026.18 412.461 1026.18 415.961ZM1073.21 431V426.734C1070.95 430.016 1067.88 431.656 1063.99 431.656C1062.28 431.656 1060.67 431.328 1059.18 430.672C1057.7 430.016 1056.6 429.195 1055.87 428.211C1055.16 427.208 1054.66 425.987 1054.37 424.547C1054.17 423.581 1054.07 422.049 1054.07 419.953V401.961H1058.99V418.066C1058.99 420.637 1059.09 422.368 1059.29 423.262C1059.6 424.556 1060.26 425.577 1061.26 426.324C1062.26 427.053 1063.5 427.418 1064.98 427.418C1066.45 427.418 1067.84 427.044 1069.13 426.297C1070.43 425.531 1071.34 424.501 1071.87 423.207C1072.41 421.895 1072.69 419.999 1072.69 417.52V401.961H1077.61V431H1073.21ZM1085.38 396.574V390.914H1090.3V396.574H1085.38ZM1085.38 431V401.961H1090.3V431H1085.38ZM1097.71 431V390.914H1102.63V431H1097.71ZM1129.12 431V427.336C1127.28 430.216 1124.58 431.656 1121 431.656C1118.69 431.656 1116.56 431.018 1114.61 429.742C1112.67 428.466 1111.17 426.689 1110.09 424.41C1109.04 422.113 1108.51 419.479 1108.51 416.508C1108.51 413.609 1108.99 410.984 1109.96 408.633C1110.92 406.263 1112.37 404.449 1114.3 403.191C1116.24 401.934 1118.4 401.305 1120.79 401.305C1122.54 401.305 1124.09 401.678 1125.46 402.426C1126.83 403.155 1127.94 404.112 1128.8 405.297V390.914H1133.69V431H1129.12ZM1113.57 416.508C1113.57 420.227 1114.35 423.007 1115.92 424.848C1117.49 426.689 1119.34 427.609 1121.47 427.609C1123.62 427.609 1125.44 426.734 1126.94 424.984C1128.45 423.216 1129.21 420.527 1129.21 416.918C1129.21 412.944 1128.44 410.027 1126.91 408.168C1125.38 406.309 1123.49 405.379 1121.25 405.379C1119.06 405.379 1117.23 406.272 1115.75 408.059C1114.3 409.845 1113.57 412.661 1113.57 416.508ZM1139.49 422.332L1144.36 421.566C1144.63 423.517 1145.39 425.012 1146.62 426.051C1147.88 427.09 1149.63 427.609 1151.88 427.609C1154.14 427.609 1155.81 427.154 1156.91 426.242C1158 425.312 1158.55 424.228 1158.55 422.988C1158.55 421.876 1158.06 421.001 1157.1 420.363C1156.42 419.926 1154.75 419.37 1152.07 418.695C1148.46 417.784 1145.95 417 1144.55 416.344C1143.16 415.669 1142.1 414.749 1141.38 413.582C1140.66 412.397 1140.31 411.094 1140.31 409.672C1140.31 408.378 1140.6 407.184 1141.18 406.09C1141.79 404.978 1142.6 404.057 1143.62 403.328C1144.38 402.763 1145.42 402.289 1146.73 401.906C1148.07 401.505 1149.49 401.305 1151 401.305C1153.28 401.305 1155.27 401.633 1156.99 402.289C1158.72 402.945 1160 403.839 1160.82 404.969C1161.64 406.081 1162.2 407.576 1162.51 409.453L1157.7 410.109C1157.48 408.615 1156.84 407.448 1155.79 406.609C1154.75 405.771 1153.27 405.352 1151.36 405.352C1149.1 405.352 1147.48 405.725 1146.52 406.473C1145.55 407.22 1145.07 408.095 1145.07 409.098C1145.07 409.736 1145.27 410.31 1145.67 410.82C1146.07 411.349 1146.7 411.786 1147.55 412.133C1148.05 412.315 1149.5 412.734 1151.9 413.391C1155.38 414.32 1157.81 415.086 1159.18 415.688C1160.56 416.271 1161.65 417.128 1162.43 418.258C1163.21 419.388 1163.61 420.792 1163.61 422.469C1163.61 424.109 1163.12 425.659 1162.16 427.117C1161.21 428.557 1159.83 429.678 1158.03 430.48C1156.22 431.264 1154.18 431.656 1151.9 431.656C1148.13 431.656 1145.25 430.872 1143.26 429.305C1141.29 427.737 1140.04 425.413 1139.49 422.332ZM1170.85 431V425.395H1176.46V431H1170.85ZM1203.99 427.418C1202.17 428.967 1200.41 430.061 1198.71 430.699C1197.04 431.337 1195.23 431.656 1193.3 431.656C1190.11 431.656 1187.66 430.882 1185.95 429.332C1184.23 427.764 1183.38 425.768 1183.38 423.344C1183.38 421.922 1183.69 420.628 1184.33 419.461C1184.99 418.276 1185.84 417.328 1186.88 416.617C1187.93 415.906 1189.12 415.368 1190.43 415.004C1191.4 414.749 1192.85 414.503 1194.8 414.266C1198.78 413.792 1201.7 413.227 1203.58 412.57C1203.6 411.896 1203.61 411.467 1203.61 411.285C1203.61 409.28 1203.14 407.867 1202.21 407.047C1200.96 405.935 1199.09 405.379 1196.61 405.379C1194.29 405.379 1192.58 405.789 1191.47 406.609C1190.38 407.411 1189.56 408.842 1189.04 410.902L1184.22 410.246C1184.66 408.186 1185.38 406.527 1186.38 405.27C1187.39 403.993 1188.83 403.018 1190.73 402.344C1192.63 401.651 1194.82 401.305 1197.32 401.305C1199.8 401.305 1201.81 401.596 1203.36 402.18C1204.91 402.763 1206.05 403.501 1206.78 404.395C1207.51 405.27 1208.02 406.382 1208.31 407.73C1208.48 408.569 1208.56 410.082 1208.56 412.27V418.832C1208.56 423.408 1208.66 426.306 1208.86 427.527C1209.08 428.73 1209.5 429.888 1210.12 431H1204.98C1204.47 429.979 1204.14 428.785 1203.99 427.418ZM1203.58 416.426C1201.8 417.155 1199.12 417.775 1195.54 418.285C1193.52 418.577 1192.09 418.905 1191.25 419.27C1190.41 419.634 1189.76 420.172 1189.31 420.883C1188.85 421.576 1188.62 422.35 1188.62 423.207C1188.62 424.52 1189.12 425.613 1190.1 426.488C1191.1 427.363 1192.56 427.801 1194.48 427.801C1196.37 427.801 1198.06 427.391 1199.54 426.57C1201.01 425.732 1202.1 424.592 1202.79 423.152C1203.32 422.04 1203.58 420.4 1203.58 418.23V416.426ZM1235.25 431V426.734C1232.99 430.016 1229.91 431.656 1226.03 431.656C1224.32 431.656 1222.71 431.328 1221.22 430.672C1219.74 430.016 1218.64 429.195 1217.91 428.211C1217.2 427.208 1216.7 425.987 1216.41 424.547C1216.21 423.581 1216.11 422.049 1216.11 419.953V401.961H1221.03V418.066C1221.03 420.637 1221.13 422.368 1221.33 423.262C1221.64 424.556 1222.29 425.577 1223.3 426.324C1224.3 427.053 1225.54 427.418 1227.02 427.418C1228.49 427.418 1229.88 427.044 1231.17 426.297C1232.47 425.531 1233.38 424.501 1233.91 423.207C1234.45 421.895 1234.73 419.999 1234.73 417.52V401.961H1239.65V431H1235.25Z" fill="#999999"/>
</g>
<defs>
<linearGradient id="paint0_linear_138_51" x1="121.886" y1="70.9683" x2="279.233" y2="496.761" gradientUnits="userSpaceOnUse">
<stop stop-color="#667DE8"/>
<stop offset="1" stop-color="#764CA3"/>
</linearGradient>
<linearGradient id="paint1_linear_138_51" x1="324.542" y1="43.616" x2="581.229" y2="184.505" gradientUnits="userSpaceOnUse">
<stop stop-color="#667DE8"/>
<stop offset="1" stop-color="#764CA3"/>
</linearGradient>
<linearGradient id="paint2_linear_138_51" x1="573" y1="159" x2="977.35" y2="-552.215" gradientUnits="userSpaceOnUse">
<stop stop-color="#667DE8"/>
<stop offset="1" stop-color="#764CA3"/>
</linearGradient>
<clipPath id="clip0_138_51">
<rect width="2257" height="476" fill="white"/>
</clipPath>
</defs>
</svg>
